<?xml version="1.0" encoding="UTF-8" standalone="no"?>
<svg
   style="font-style:normal;font-weight:normal;font-size:12px;font-family:Dialog;color-interpolation:auto;fill:#000000;fill-opacity:1;stroke:#000000;stroke-width:1;stroke-linecap:square;stroke-linejoin:miter;stroke-miterlimit:10;stroke-dasharray:none;stroke-dashoffset:0;stroke-opacity:1;color-rendering:auto;image-rendering:auto;shape-rendering:auto;text-rendering:auto"
   width="800"
   height="800"
   version="1.1"
   id="svg5608"
   sodipodi:docname="output_220918_170600.svg"
   inkscape:export-filename="output_220918_170600_2.svg"
   inkscape:export-xdpi="96"
   inkscape:export-ydpi="96"
   xmlns:inkscape="http://www.inkscape.org/namespaces/inkscape"
   xmlns:sodipodi="http://sodipodi.sourceforge.net/DTD/sodipodi-0.dtd"
   xmlns="http://www.w3.org/2000/svg"
   xmlns:svg="http://www.w3.org/2000/svg">
  <sodipodi:namedview
     id="namedview5610"
     pagecolor="#ffffff"
     bordercolor="#000000"
     borderopacity="0.25"
     inkscape:showpageshadow="2"
     inkscape:pageopacity="0.0"
     inkscape:pagecheckerboard="0"
     inkscape:deskcolor="#d1d1d1"
     showgrid="false" />
  <!--Generated by the Batik Graphics2D SVG Generator-->
  <defs
     id="genericDefs" />
  <g
     id="g5606">
    <g
       style="fill:#ffffff;stroke:#ffffff;stroke-linecap:round"
       id="g4154">
      <path
         id="circle4152"
         style="stroke:none"
         d="m 390.22791,332.53571 a 2.5,2.5 0 0 1 -2.5,2.5 2.5,2.5 0 0 1 -2.5,-2.5 2.5,2.5 0 0 1 2.5,-2.5 2.5,2.5 0 0 1 2.5,2.5 z" />
    </g>
    <g
       style="stroke-linecap:round"
       id="g5604">
      <path
         id="line5550"
         style="fill:none;stroke:#646464"
         d="m 331.7402,387.77371 -0.1759,-2.84131 m 0.1759,2.84131 -16.18411,21.05548 M 331.5643,384.9324 315.12021,369.68811 m 16.44409,15.24429 19.06799,-14.70889 m -35.51208,-0.5354 -23.5795,15.2193 m 23.5795,-15.2193 1.00378,-12.77762 m -24.58328,27.99692 5.72479,17.47208 m -5.72479,-17.47208 -12.57962,-6.65231 m 18.30441,24.12439 18.29059,6.4497 m -18.29059,-6.4497 -19.6481,22.7348 m 37.93869,-16.2851 4.06732,8.22461 m -88.90521,-60.71231 -1.19659,2.2356 m 1.19659,-2.2356 36.95429,-10.00079 M 230.7182,356.34149 220.28059,315.2648 m 9.24102,43.31229 15.77279,36.57022 m -15.77279,-36.57022 -36.74771,11.67202 m 52.5205,24.8982 4.2826,1.23331 m -4.2826,-1.23331 -32.57409,21.17859 M 249.577,396.38062 278.96109,378.2551 m -29.38409,18.12552 17.35699,27.61428 m 12.0271,-45.7398 -4.59198,-26.78031 m 0,0 -6.69662,-5.13409 m 6.69662,5.13409 30.57339,-7.97769 m -37.27001,2.8436 -0.67988,-36.04181 m 49.13138,46.6116 -11.18149,-13.41339 m 11.18149,13.41339 25.65412,-7.85959 m -36.83561,-5.5538 4.8053,-21.24979 m -116.9739,48.0018 -5.11429,11.92988 m 5.11429,-11.92988 -19.3547,-38.28952 m 14.24041,50.2194 25.0607,34.14691 m -25.0607,-34.14691 -31.27771,12.2716 m 56.33841,21.87531 -1.06311,6.61059 m 55.27679,1.05841 10.68341,1.11939 m -10.68341,-1.11939 -24.84219,28.67691 m 35.5256,-27.55752 15.5221,18.0502 m -20.00711,31.6839 6.71682,-1.87338 m -6.71682,1.87338 -31.04059,-22.17658 m 31.04059,22.17658 -15.1395,35.3732 m 21.85632,-37.24658 13.29029,-29.81052 m -13.29029,29.81052 26.0643,13.18768 m -12.77401,-42.9982 16.2517,-0.91989 m -67.2994,10.42721 -0.1789,0.0161 m 174.67121,3.96858 -7.57721,21.79572 m 7.57721,-21.79572 24.48999,2.37302 m -59.20999,4.5726 19.9721,17.5499 m -19.9721,-17.5499 -1.11371,-0.0419 m 21.08581,17.5918 7.17069,-2.6998 m -7.17069,2.6998 -8.5795,18.23688 m 15.75019,-20.93668 24.2044,11.81638 m -81.117,-13.45359 11.20099,2.00809 m -11.20099,-2.00809 -6.078,-25.96661 m 6.078,25.96661 -15.09641,10.24051 m 26.2974,-8.23242 17.45511,-15.26288 m -17.45511,15.26288 13.34982,24.24551 m 4.10529,-39.50839 -12.9169,-19.11371 m 0,0 -21.8172,6.40189 m 0,0 -4.46009,-2.8862 m 9.07608,-77.73868 -8.85418,-21.17261 m 0,0 3.15088,-6.12661 m -25.30558,74.12951 22.7724,5.2464 m -22.7724,-5.2464 -10.23221,25.1908 m 33.00461,-19.9444 -0.8396,25.66199 m -32.16501,-5.71759 11.271,9.79819 m 0,0 20.89401,-4.0806 m -20.89401,4.0806 -3.0545,28.57013 M 241.9129,452.6879 211.6572,422.93649 m 30.2557,29.75141 -24.864,30.9053 m -5.3917,-60.65671 -29.6138,21.58542 m 123.87011,41.64078 11.69419,-5.54977 m -11.69419,5.54977 -4.25372,35.48959 m 15.94791,-41.03936 19.39019,6.44259 m 160.1084,-56.26041 -1.85989,-15.51989 m 1.85989,15.51989 -24.8052,11.49811 m 24.8052,-11.49811 12.34372,9.98359 M 495.2464,415.27521 477.32599,404.50079 m 17.92041,10.77442 21.88757,-18.98462 m -39.80798,8.2102 -18.5546,18.53641 m 18.5546,-18.53641 -1.57449,-5.89978 m -16.98011,24.43619 13.5297,19.25601 m 0,0 -2.70679,9.5394 m -14.461,-63.0498 3.7515,-23.27002 m -3.7515,23.27002 20.6182,9.8182 m -16.8667,-33.08822 -1.42359,-1.38959 m 1.42359,1.38959 22.80139,0.32782 m -24.22498,-1.71741 -2.578,-26.43701 m -78.2381,165.38241 16.6116,-3.67971 m -16.6116,3.67971 -8.2912,12.57251 m 24.9028,-16.25222 20.86698,20.84048 m 19.08761,-29.96078 9.83991,-9.28388 m -9.83991,9.28388 -0.7062,17.05892 m 10.54611,-26.3428 -1.97711,-21.9552 m 1.97711,21.9552 27.83139,4.9848 m -29.8085,-26.94 2.29751,-2.87781 m -286.74151,25.4559 24.1992,-20.4888 m -24.1992,20.4888 0.3887,25.80741 m 23.8105,-46.29621 1.2141,-16.59689 m -1.2141,16.59689 36.2196,22.4744 m -35.0055,-39.07129 -32.64,-28.82852 m 0,0 6.9785,-21.2428 m 139.4226,167.92349 5.56961,5.9737 m -5.56961,-5.9737 3.53171,-38.97711 m -3.53171,38.97711 -42.4275,-0.3894 m 47.99711,6.3631 41.93958,-6.46185 m -41.93958,6.46185 -1.2218,35.9173 m 43.16138,-42.37915 -7.0961,-37.51722 m 7.0961,37.51722 1.2356,0.79919 m -8.3317,-38.31641 -34.5578,-2.71643 m 34.5578,2.71643 6.38052,-6.87433 m -40.93832,4.1579 -2.32358,1.74469 m 0,0 -39.6701,-9.41327 m 134.0748,-167.0736 -22.02192,-4.9762 m 22.02192,4.9762 11.95709,-19.2421 m -33.97901,14.2659 -0.16809,0.14099 m 0.16809,-0.14099 2.81592,-23.4039 m -2.98401,23.54489 -26.62191,0.8494 m 125.95361,143.04522 7.768,-17.42001 m -7.768,17.42001 4.6961,12.98069 m 3.0719,-30.4007 -9.0563,-16.71689 m 9.0563,16.71689 30.1569,-3.29889 m -39.2132,-13.418 -26.22269,4.31909 m 63.39179,-78.24319 -17.68341,-2.4903 m 17.68341,2.4903 10.37057,18.38208 m -10.37057,-18.38208 16.79287,-26.37952 m -34.47628,23.88922 -13.32849,23.1828 m 13.32849,-23.1828 -7.3938,-9.5776 m 35.44778,30.44998 11.97742,3.63382 m -40.60339,-61.10202 -15.38321,-8.7666 m 15.38321,8.7666 -6.82181,27.01822 m 6.82181,-27.01822 14.18371,-3.6337 m -29.56692,-5.1329 -18.24158,7.6304 m 18.24158,-7.6304 -1.09031,-29.74649 m -17.15127,37.37689 -7.83542,-3.08969 m 14.99472,195.68152 -1.41022,-7.82624 m 1.41022,7.82624 -24.16531,27.67889 m 24.16531,-27.67889 33.96838,17.78271 m -35.3786,-25.60895 -28.12719,-15.12427 m 28.12719,15.12427 14.94641,-23.50158 m -43.0736,8.37731 -18.38141,12.90186 m 0,0 -2.30408,11.40753 m 0,0 26.05759,26.32001 m -26.05759,-26.32001 -27.952,13.97351 m 54.00959,12.3465 -0.004,1.29327 M 191.00459,259.52289 171.8799,274.84711 m 19.12469,-15.32422 31.74251,6.6402 m -50.8672,8.68402 12.9554,42.10168 m 0,0 35.44529,-1.68399 m -35.44529,1.68399 -11.4161,15.0108 m 46.86139,-16.69479 6.1503,-6.77429 m 0,0 -3.68379,-42.32742 m 3.68379,42.32742 39.3272,0.44678 m -43.01099,-42.7742 12.6998,-8.46878 m 31.54571,52.60458 -1.23452,-1.3616 m 1.23452,1.3616 36.56238,1.5835 m -37.7969,-2.9451 5.6412,-41.0402 m 155.33161,77.93332 20.31689,-11.23391 m -20.31689,11.23391 -16.58619,-18.88592 m 36.90308,7.65201 -9.66849,-25.27091 m 0,0 -14.2258,0.29102 m 14.2258,-0.29102 11.70151,-11.8829 m -25.92731,12.17392 -13.00879,17.32788 m 13.00879,-17.32788 -17.10031,-22.7955 m 4.09152,40.12338 -4.44671,0.72351 m -186.8263,166.36459 -20.08731,28.39728 m 20.08731,-28.39728 39.12119,16.189 m -39.12119,-16.189 -1.8228,-10.43939 m -18.26451,38.83667 5.18851,19.50305 m -5.18851,-19.50305 -41.76559,-15.01486 m 46.9541,34.51791 42.46111,7.4953 m 0,0 13.2321,-35.44452 m -13.2321,35.44452 6.94299,12.55646 m 6.28911,-48.00098 -1.67322,-3.76211 m 42.15942,94.04349 -42.91641,8.89709 m 42.91641,-8.89709 13.35108,12.0271 m -60.12639,-54.3075 -9.3559,31.55859 m 0,0 13.2148,19.6189 m 85.36221,-95.66779 -5.60022,-30.43887 m 5.60022,30.43887 25.7558,-1.85327 m 15.21668,-202.7558 -9.03568,5.64469 m 9.03568,-5.64469 22.12741,14.78269 m -22.12741,-14.78269 4.41131,-18.0986 m -13.44699,23.74329 -26.1315,-8.56931 m -38.65561,12.28662 29.21241,1.02958 m -29.21241,-1.02958 -6.19281,-10.36492 m 41.374,31.0419 -5.96878,-19.6474 m 0,0 9.4432,-13.3162 m 160.40409,155.28992 0.64251,-24.47192 m -0.64251,24.47192 6.85192,7.6832 m -6.20941,-32.15512 30.35559,-12.943 m -64.2269,71.11451 34.26099,6.7662 m -141.48578,9.92471 15.5137,29.9693 m 0,0 -1.99691,5.09717 m -67.24231,-267.31729 -2.13858,-5.59018 m 2.13858,5.59018 -11.0734,28.4921 m 11.0734,-28.4921 31.4039,11.28421 m -33.54248,-16.87439 -36.5709,-12.3819 m 36.5709,12.3819 19.44088,-33.67731 m -56.01178,21.29541 -4.51962,2.47888 m 4.51962,-2.47888 12.34528,-40.48491 m -16.8649,42.96379 -35.95239,-10.20278 m 0,0 3.46941,-43.13891 m 233.11817,85.7539 -22.95367,-2.86661 m 22.95367,2.86661 9.02073,-6.62742 m -31.9744,3.76081 -10.43152,-30.55399 m 20.8414,379.47599 24.90582,1.68884 m -24.90582,-1.68884 -18.7167,-26.19666 m 43.62252,27.8855 18.76639,-39.9574 m 0,0 -27.00811,-22.62732 m 27.00811,22.62732 18.99939,-3.39691 m -46.0075,-19.23041 -9.61658,0.86566 m 9.61658,-0.86566 19.8561,-37.40808 m -29.47268,38.27374 -25.76422,33.83356 m 25.76422,-33.83356 -28.66452,-27.08429 m 2.9003,60.91785 -15.55088,-2.44104 M 335.94519,183.55141 359.54871,210.9613 M 335.94519,183.55141 361.6445,148.1705 m -25.69931,35.38091 -17.52188,0.18649 m 41.1254,27.2234 7.67398,0.5862 m -7.67398,-0.5862 -26.71201,33.006 m 34.38599,-32.4198 31.6231,-28.2364 m -31.6231,28.2364 23.78912,30.94299 M 398.84579,183.3111 384.2572,153.564 m 14.58859,29.7471 13.19431,4.3999 m -27.7829,-34.147 -22.6127,-5.3935 m 103.46301,27.1772 -16.67141,-10.61529 m 16.67141,10.61529 4.49109,34.7114 m -4.49109,-34.7114 40.87439,-16.9665 m -57.5458,6.35121 -36.396,22.97859 m 0,0 14.40051,35.2467 m 0,0 3.30609,1.4312 m -3.30609,-1.4312 -35.4288,19.53279 m 38.73489,-18.10159 39.8519,-14.3298 m -39.8519,14.3298 12.8685,36.1761 m 26.9834,-50.5059 8.0253,6.1562 m -95.7532,334.49228 -37.32141,11.97754 m 37.32141,-11.97754 18.48849,33.99414 m -55.8099,-22.0166 8.80831,38.03821 m -4.95419,-290.76264 -2.37112,-15.28619 m 60.0209,-7.85339 -18.07129,7.9656 m 18.07129,-7.9656 5.09201,-12.37622 m -23.1633,20.34182 -24.5762,-18.30282 m -63.9686,-54.47319 -11.17291,2.9226 m 11.17291,-2.9226 32.49359,22.1121 m -32.49359,-22.1121 18.98621,-38.2728 m -30.15912,41.1954 -29.52008,-17.4642 m 73.18658,36.6537 0.90601,-0.1555 m 13.19559,50.7072 17.37341,-18.19061 m 0,0 0.0968,-9.82758 m 0,0 -30.6658,-22.68901 m 30.6658,22.68901 26.86911,-20.79372 m 90.6836,47.81929 -1.23951,-37.45388 m 1.23951,37.45388 30.74728,8.61591 M 479.8157,256.228 l -37.2005,4.337 m 37.2005,-4.337 0.50309,-0.54869 m -37.70359,4.88569 -3.96591,6.3237 m 0,0 -27.50409,7.55619 m 66.4787,-58.22959 2.69489,39.46401 m -2.69489,-39.46401 41.87433,-7.6983 m -39.17944,47.16231 42.05609,1.67659 m 0,0 7.1828,-36.17501 m -7.1828,36.17501 3.40442,5.14639 m 3.77838,-41.3214 -10.05945,-12.66389 m 10.05945,12.66389 43.44385,-0.6532 m -53.5033,-12.01069 3.94495,-31.7357 m 22.43585,381.00538 -12.24652,5.4978 m 12.24652,-5.4978 31.10119,12.08069 m -31.10119,-12.08069 4.41485,-42.1416 m -16.66137,47.6394 -11.47022,41.41474 m 11.47022,-41.41474 -34.72061,-16.23651 m 78.06832,22.8194 19.89747,-11.10626 m -171.65458,58.96588 -19.3692,-31.66516 m 19.3692,31.66516 -31.6293,29.64319 m 12.2601,-61.30835 -5.49472,-1.36011 m 5.49472,1.36011 32.01978,-26.81165 m -37.5145,25.45154 -36.39078,21.66016 m 0,0 9.80549,32.6253 m -9.80549,-32.6253 -10.61081,-5.63855 m 20.4163,38.26385 19.81991,8.383 m -19.81991,-8.383 -37.34061,24.60559 m 192.6781,-263.66836 27.56573,-23.41702 m -27.56573,23.41702 10.69421,27.91128 m 16.87152,-51.3283 -24.24951,-25.72858 m 24.24951,25.72858 2.3609,0.22512 m -26.61041,-25.9537 -8.87134,0.75018 m 8.87134,-0.75018 20.30292,-32.39862 m -29.17426,33.1488 -20.86456,-16.3403 m 0,0 9.11078,-32.8909 m 40.92804,16.0824 -0.50311,-1.94818 m 0.50311,1.94818 35.362,23.39001 m -35.86511,-25.33819 -35.96399,-16.336 m 35.96399,16.336 19.20446,-33.71241 m -55.16845,17.37641 -4.46094,2.20178 m 4.46094,-2.20178 9.51587,-37.59372 m -134.76749,-20.0118 -0.6402,3.3721 m 0,0 20.77359,28.5823 m -152.40109,-66.97579 -19.8278,7.0863 m 19.8278,-7.0863 11.04929,-43.2148 m 43.70999,452.03788 39.85421,-15.56885 m -39.85421,15.56885 1.28332,31.01269 m 210.99259,-384.80258 41.49933,8.4368 M 296.30539,161.6265 l 22.11792,22.1114 m -22.11792,-22.1114 -26.51199,2.6278 m 229.1185,382.79367 -2.90101,1.01276 m 2.90101,-1.01276 12.99569,-37.96927 m -197.12088,138.22617 21.64658,16.2879 m 260.4444,-104.83166 -4.76166,-43.38562 m 0,0 -36.18482,-4.17478 m 36.18482,4.17478 12.44287,-11.6929 m -48.62769,7.51812 -5.63733,4.44437 m 5.63733,-4.44437 -2.39331,-42.44632 m -3.24402,46.89069 -38.38629,-6.56638 m 41.63031,-40.32431 0.22211,-0.28778 m -0.22211,0.28778 -37.87848,4.17942 m 38.10059,-4.4672 -8.17023,-37.71731 m 8.17023,37.71731 39.1059,-5.8164 m -47.27613,-31.90091 -5.78418,-2.91361 m 5.78418,2.91361 35.19043,-15.7034 m -65.12079,57.88791 -5.81973,32.78259 m 72.22989,-265.22481 -14.79095,30.4475 m 14.79095,-30.4475 44.3158,6.99391 m -44.3158,-6.99391 -9.06805,-19.9639 m -5.7229,50.4114 4.15325,11.78051 m 0,0 40.01905,15.28519 m 0,0 19.89715,-23.4881 m -19.89715,23.4881 1.72326,18.3342 m 18.17389,-41.8223 -4.9627,-27.03119 m 20.97924,115.04819 3.63495,-23.82568 m -3.63495,23.82568 -28.03662,16.7255 m 31.67157,-40.55118 -37.82538,-22.36902 m 0,0 -25.08166,25.43121 m 0,0 0.0605,8.66379 m -10e-6,0 31.17498,28.8252 m -31.17498,-28.8252 -29.115,26.29852 m 60.28998,2.52668 -3.51208,14.40142 m -35.03571,21.38529 1.48877,-4.41281 m -1.48877,4.41281 18.08338,38.26971 m -16.59461,-42.68252 -23.23096,-33.90058 m 23.23096,33.90058 33.54694,-16.97248 M 523.44318,176.7813 505.9819,158.3812 m 98.577,345.30139 -11.69299,-41.03238 m 11.69299,41.03238 31.46362,1.3041 m -43.15661,-42.33648 5.99768,-9.3346 m 16.95233,-59.655 26.40991,34.19309 m -43.36224,25.46191 33.77179,-7.2088 m 0,0 9.59045,-18.25311 m -9.59045,18.25311 20.8601,39.3082 m 0,0 -17.47296,19.57168 m -126.18283,0.72971 2.0679,3.3623 m 89.112,-240.8742 a 2.5,2.5 0 0 1 -2.5,2.5 2.5,2.5 0 0 1 -2.5,-2.5 2.5,2.5 0 0 1 2.5,-2.5 2.5,2.5 0 0 1 2.5,2.5 z m 0,0 a 2.5,2.5 0 0 1 -2.5,2.5 2.5,2.5 0 0 1 -2.5,-2.5 2.5,2.5 0 0 1 2.5,-2.5 2.5,2.5 0 0 1 2.5,2.5 z M 345.5231,629.60773 a 2.5,2.5 0 0 1 -2.5,2.5 2.5,2.5 0 0 1 -2.5,-2.5 2.5,2.5 0 0 1 2.5,-2.5 2.5,2.5 0 0 1 2.5,2.5 z m 0,0 a 2.5,2.5 0 0 1 -2.5,2.5 2.5,2.5 0 0 1 -2.5,-2.5 2.5,2.5 0 0 1 2.5,-2.5 2.5,2.5 0 0 1 2.5,2.5 z M 290.21481,193.72369 a 2.5,2.5 0 0 1 -2.5,2.5 2.5,2.5 0 0 1 -2.5,-2.5 2.5,2.5 0 0 1 2.5,-2.5 2.5,2.5 0 0 1 2.5,2.5 z m 0,0 a 2.5,2.5 0 0 1 -2.5,2.5 2.5,2.5 0 0 1 -2.5,-2.5 2.5,2.5 0 0 1 2.5,-2.5 2.5,2.5 0 0 1 2.5,2.5 z m 332.79508,281.9795 a 2.5,2.5 0 0 1 -2.5,2.5 2.5,2.5 0 0 1 -2.5,-2.5 2.5,2.5 0 0 1 2.5,-2.5 2.5,2.5 0 0 1 2.5,2.5 z m 0,0 a 2.5,2.5 0 0 1 -2.5,2.5 2.5,2.5 0 0 1 -2.5,-2.5 2.5,2.5 0 0 1 2.5,-2.5 2.5,2.5 0 0 1 2.5,2.5 z M 190.3466,492.4668 a 2.5,2.5 0 0 1 -2.5,2.5 2.5,2.5 0 0 1 -2.5,-2.5 2.5,2.5 0 0 1 2.5,-2.5 2.5,2.5 0 0 1 2.5,2.5 z m 0,0 a 2.5,2.5 0 0 1 -2.5,2.5 2.5,2.5 0 0 1 -2.5,-2.5 2.5,2.5 0 0 1 2.5,-2.5 2.5,2.5 0 0 1 2.5,2.5 z M 495.80981,190.09061 a 2.5,2.5 0 0 1 -2.5,2.5 2.5,2.5 0 0 1 -2.5,-2.5 2.5,2.5 0 0 1 2.5,-2.5 2.5,2.5 0 0 1 2.5,2.5 z m 0,0 a 2.5,2.5 0 0 1 -2.5,2.5 2.5,2.5 0 0 1 -2.5,-2.5 2.5,2.5 0 0 1 2.5,-2.5 2.5,2.5 0 0 1 2.5,2.5 z M 474.9642,616.17798 a 2.5,2.5 0 0 1 -2.5,2.5 2.5,2.5 0 0 1 -2.5,-2.5 2.5,2.5 0 0 1 2.5,-2.5 2.5,2.5 0 0 1 2.5,2.5 z m 0,0 a 2.5,2.5 0 0 1 -2.5,2.5 2.5,2.5 0 0 1 -2.5,-2.5 2.5,2.5 0 0 1 2.5,-2.5 2.5,2.5 0 0 1 2.5,2.5 z M 204.5435,290.3714 a 2.5,2.5 0 0 1 -2.5,2.5 2.5,2.5 0 0 1 -2.5,-2.5 2.5,2.5 0 0 1 2.5,-2.5 2.5,2.5 0 0 1 2.5,2.5 z m 0,0 a 2.5,2.5 0 0 1 -2.5,2.5 2.5,2.5 0 0 1 -2.5,-2.5 2.5,2.5 0 0 1 2.5,-2.5 2.5,2.5 0 0 1 2.5,2.5 z m 416.30471,57.1272 a 2.5,2.5 0 0 1 -2.5,2.5 2.5,2.5 0 0 1 -2.5,-2.5 2.5,2.5 0 0 1 2.5,-2.5 2.5,2.5 0 0 1 2.5,2.5 z m 0,0 a 2.5,2.5 0 0 1 -2.5,2.5 2.5,2.5 0 0 1 -2.5,-2.5 2.5,2.5 0 0 1 2.5,-2.5 2.5,2.5 0 0 1 2.5,2.5 z M 277.89209,584.7652 a 2.5,2.5 0 0 1 -2.5,2.5 2.5,2.5 0 0 1 -2.5,-2.5 2.5,2.5 0 0 1 2.5,-2.5 2.5,2.5 0 0 1 2.5,2.5 z m 0,0 a 2.5,2.5 0 0 1 -2.5,2.5 2.5,2.5 0 0 1 -2.5,-2.5 2.5,2.5 0 0 1 2.5,-2.5 2.5,2.5 0 0 1 2.5,2.5 z M 369.8071,181.28709 a 2.5,2.5 0 0 1 -2.5,2.5 2.5,2.5 0 0 1 -2.5,-2.5 2.5,2.5 0 0 1 2.5,-2.5 2.5,2.5 0 0 1 2.5,2.5 z m 0,0 a 2.5,2.5 0 0 1 -2.5,2.5 2.5,2.5 0 0 1 -2.5,-2.5 2.5,2.5 0 0 1 2.5,-2.5 2.5,2.5 0 0 1 2.5,2.5 z m 203.20242,356.82662 a 2.5,2.5 0 0 1 -2.5,2.5 2.5,2.5 0 0 1 -2.5,-2.5 2.5,2.5 0 0 1 2.5,-2.5 2.5,2.5 0 0 1 2.5,2.5 z m 0,0 a 2.5,2.5 0 0 1 -2.5,2.5 2.5,2.5 0 0 1 -2.5,-2.5 2.5,2.5 0 0 1 2.5,-2.5 2.5,2.5 0 0 1 2.5,2.5 z M 185.1879,413.22711 a 2.5,2.5 0 0 1 -2.5,2.5 2.5,2.5 0 0 1 -2.5,-2.5 2.5,2.5 0 0 1 2.5,-2.5 2.5,2.5 0 0 1 2.5,2.5 z m 0,0 a 2.5,2.5 0 0 1 -2.5,2.5 2.5,2.5 0 0 1 -2.5,-2.5 2.5,2.5 0 0 1 2.5,-2.5 2.5,2.5 0 0 1 2.5,2.5 z M 552.61713,244.69099 a 2.5,2.5 0 0 1 -2.5,2.5 2.5,2.5 0 0 1 -2.5,-2.5 2.5,2.5 0 0 1 2.5,-2.5 2.5,2.5 0 0 1 2.5,2.5 z m 0,0 a 2.5,2.5 0 0 1 -2.5,2.5 2.5,2.5 0 0 1 -2.5,-2.5 2.5,2.5 0 0 1 2.5,-2.5 2.5,2.5 0 0 1 2.5,2.5 z M 396.75851,614.2088 a 2.5,2.5 0 0 1 -2.5,2.5 2.5,2.5 0 0 1 -2.5,-2.5 2.5,2.5 0 0 1 2.5,-2.5 2.5,2.5 0 0 1 2.5,2.5 z m 0,0 a 2.5,2.5 0 0 1 -2.5,2.5 2.5,2.5 0 0 1 -2.5,-2.5 2.5,2.5 0 0 1 2.5,-2.5 2.5,2.5 0 0 1 2.5,2.5 z M 263.1459,239.4789 a 2.5,2.5 0 0 1 -2.5,2.5 2.5,2.5 0 0 1 -2.5,-2.5 2.5,2.5 0 0 1 2.5,-2.5 2.5,2.5 0 0 1 2.5,2.5 z m 0,0 a 2.5,2.5 0 0 1 -2.5,2.5 2.5,2.5 0 0 1 -2.5,-2.5 2.5,2.5 0 0 1 2.5,-2.5 2.5,2.5 0 0 1 2.5,2.5 z m 348.83628,184.56199 a 2.5,2.5 0 0 1 -2.5,2.5 2.5,2.5 0 0 1 -2.5,-2.5 2.5,2.5 0 0 1 2.5,-2.5 2.5,2.5 0 0 1 2.5,2.5 z m 0,0 a 2.5,2.5 0 0 1 -2.5,2.5 2.5,2.5 0 0 1 -2.5,-2.5 2.5,2.5 0 0 1 2.5,-2.5 2.5,2.5 0 0 1 2.5,2.5 z M 233.1797,522.7655 a 2.5,2.5 0 0 1 -2.5,2.5 2.5,2.5 0 0 1 -2.5,-2.5 2.5,2.5 0 0 1 2.5,-2.5 2.5,2.5 0 0 1 2.5,2.5 z m 0,0 a 2.5,2.5 0 0 1 -2.5,2.5 2.5,2.5 0 0 1 -2.5,-2.5 2.5,2.5 0 0 1 2.5,-2.5 2.5,2.5 0 0 1 2.5,2.5 z M 444.08621,196.7829 a 2.5,2.5 0 0 1 -2.5,2.5 2.5,2.5 0 0 1 -2.5,-2.5 2.5,2.5 0 0 1 2.5,-2.5 2.5,2.5 0 0 1 2.5,2.5 z m 0,0 a 2.5,2.5 0 0 1 -2.5,2.5 2.5,2.5 0 0 1 -2.5,-2.5 2.5,2.5 0 0 1 2.5,-2.5 2.5,2.5 0 0 1 2.5,2.5 z m 64.15668,379.6734 a 2.5,2.5 0 0 1 -2.5,2.5 2.5,2.5 0 0 1 -2.5,-2.5 2.5,2.5 0 0 1 2.5,-2.5 2.5,2.5 0 0 1 2.5,2.5 z m 0,0 a 2.5,2.5 0 0 1 -2.5,2.5 2.5,2.5 0 0 1 -2.5,-2.5 2.5,2.5 0 0 1 2.5,-2.5 2.5,2.5 0 0 1 2.5,2.5 z M 206.9857,341.77509 a 2.5,2.5 0 0 1 -2.5,2.5 2.5,2.5 0 0 1 -2.5,-2.5 2.5,2.5 0 0 1 2.5,-2.5 2.5,2.5 0 0 1 2.5,2.5 z m 0,0 a 2.5,2.5 0 0 1 -2.5,2.5 2.5,2.5 0 0 1 -2.5,-2.5 2.5,2.5 0 0 1 2.5,-2.5 2.5,2.5 0 0 1 2.5,2.5 z m 377.46028,-30.17838 a 2.5,2.5 0 0 1 -2.5,2.5 2.5,2.5 0 0 1 -2.5,-2.5 2.5,2.5 0 0 1 2.5,-2.5 2.5,2.5 0 0 1 2.5,2.5 z m 0,0 a 2.5,2.5 0 0 1 -2.5,2.5 2.5,2.5 0 0 1 -2.5,-2.5 2.5,2.5 0 0 1 2.5,-2.5 2.5,2.5 0 0 1 2.5,2.5 z M 328.68039,586.4928 a 2.5,2.5 0 0 1 -2.5,2.5 2.5,2.5 0 0 1 -2.5,-2.5 2.5,2.5 0 0 1 2.5,-2.5 2.5,2.5 0 0 1 2.5,2.5 z m 0,0 a 2.5,2.5 0 0 1 -2.5,2.5 2.5,2.5 0 0 1 -2.5,-2.5 2.5,2.5 0 0 1 2.5,-2.5 2.5,2.5 0 0 1 2.5,2.5 z m 2.8714,-372.2628 a 2.5,2.5 0 0 1 -2.5,2.5 2.5,2.5 0 0 1 -2.5,-2.5 2.5,2.5 0 0 1 2.5,-2.5 2.5,2.5 0 0 1 2.5,2.5 z m 0,0 a 2.5,2.5 0 0 1 -2.5,2.5 2.5,2.5 0 0 1 -2.5,-2.5 2.5,2.5 0 0 1 2.5,-2.5 2.5,2.5 0 0 1 2.5,2.5 z m 247.20334,274.08451 a 2.5,2.5 0 0 1 -2.5,2.5 2.5,2.5 0 0 1 -2.5,-2.5 2.5,2.5 0 0 1 2.5,-2.5 2.5,2.5 0 0 1 2.5,2.5 z m 0,0 a 2.5,2.5 0 0 1 -2.5,2.5 2.5,2.5 0 0 1 -2.5,-2.5 2.5,2.5 0 0 1 2.5,-2.5 2.5,2.5 0 0 1 2.5,2.5 z M 214.5334,453.4874 a 2.5,2.5 0 0 1 -2.5,2.5 2.5,2.5 0 0 1 -2.5,-2.5 2.5,2.5 0 0 1 2.5,-2.5 2.5,2.5 0 0 1 2.5,2.5 z m 0,0 a 2.5,2.5 0 0 1 -2.5,2.5 2.5,2.5 0 0 1 -2.5,-2.5 2.5,2.5 0 0 1 2.5,-2.5 2.5,2.5 0 0 1 2.5,2.5 z M 504.07581,235.0528 a 2.5,2.5 0 0 1 -2.5,2.5 2.5,2.5 0 0 1 -2.5,-2.5 2.5,2.5 0 0 1 2.5,-2.5 2.5,2.5 0 0 1 2.5,2.5 z m 0,0 a 2.5,2.5 0 0 1 -2.5,2.5 2.5,2.5 0 0 1 -2.5,-2.5 2.5,2.5 0 0 1 2.5,-2.5 2.5,2.5 0 0 1 2.5,2.5 z m -65.38251,353.505 a 2.5,2.5 0 0 1 -2.5,2.5 2.5,2.5 0 0 1 -2.5,-2.5 2.5,2.5 0 0 1 2.5,-2.5 2.5,2.5 0 0 1 2.5,2.5 z m 0,0 a 2.5,2.5 0 0 1 -2.5,2.5 2.5,2.5 0 0 1 -2.5,-2.5 2.5,2.5 0 0 1 2.5,-2.5 2.5,2.5 0 0 1 2.5,2.5 z M 249.82159,286.43079 a 2.5,2.5 0 0 1 -2.5,2.5 2.5,2.5 0 0 1 -2.5,-2.5 2.5,2.5 0 0 1 2.5,-2.5 2.5,2.5 0 0 1 2.5,2.5 z m 0,0 a 2.5,2.5 0 0 1 -2.5,2.5 2.5,2.5 0 0 1 -2.5,-2.5 2.5,2.5 0 0 1 2.5,-2.5 2.5,2.5 0 0 1 2.5,2.5 z m 340.26642,94.33541 a 2.5,2.5 0 0 1 -2.5,2.5 2.5,2.5 0 0 1 -2.5,-2.5 2.5,2.5 0 0 1 2.5,-2.5 2.5,2.5 0 0 1 2.5,2.5 z m 0,0 a 2.5,2.5 0 0 1 -2.5,2.5 2.5,2.5 0 0 1 -2.5,-2.5 2.5,2.5 0 0 1 2.5,-2.5 2.5,2.5 0 0 1 2.5,2.5 z M 278.30649,539.61218 a 2.5,2.5 0 0 1 -2.5,2.5 2.5,2.5 0 0 1 -2.5,-2.5 2.5,2.5 0 0 1 2.5,-2.5 2.5,2.5 0 0 1 2.5,2.5 z m 0,0 a 2.5,2.5 0 0 1 -2.5,2.5 2.5,2.5 0 0 1 -2.5,-2.5 2.5,2.5 0 0 1 2.5,-2.5 2.5,2.5 0 0 1 2.5,2.5 z M 399.7995,214.8768 a 2.5,2.5 0 0 1 -2.5,2.5 2.5,2.5 0 0 1 -2.5,-2.5 2.5,2.5 0 0 1 2.5,-2.5 2.5,2.5 0 0 1 2.5,2.5 z m 0,0 a 2.5,2.5 0 0 1 -2.5,2.5 2.5,2.5 0 0 1 -2.5,-2.5 2.5,2.5 0 0 1 2.5,-2.5 2.5,2.5 0 0 1 2.5,2.5 z m 128.56097,318.5593 a 2.5,2.5 0 0 1 -2.5,2.5 2.5,2.5 0 0 1 -2.5,-2.5 2.5,2.5 0 0 1 2.5,-2.5 2.5,2.5 0 0 1 2.5,2.5 z m 0,0 a 2.5,2.5 0 0 1 -2.5,2.5 2.5,2.5 0 0 1 -2.5,-2.5 2.5,2.5 0 0 1 2.5,-2.5 2.5,2.5 0 0 1 2.5,2.5 z M 221.2697,386.74631 a 2.5,2.5 0 0 1 -2.5,2.5 2.5,2.5 0 0 1 -2.5,-2.5 2.5,2.5 0 0 1 2.5,-2.5 2.5,2.5 0 0 1 2.5,2.5 z m 0,0 a 2.5,2.5 0 0 1 -2.5,2.5 2.5,2.5 0 0 1 -2.5,-2.5 2.5,2.5 0 0 1 2.5,-2.5 2.5,2.5 0 0 1 2.5,2.5 z m 322.46071,-98.34372 a 2.5,2.5 0 0 1 -2.5,2.5 2.5,2.5 0 0 1 -2.5,-2.5 2.5,2.5 0 0 1 2.5,-2.5 2.5,2.5 0 0 1 2.5,2.5 z m 0,0 a 2.5,2.5 0 0 1 -2.5,2.5 2.5,2.5 0 0 1 -2.5,-2.5 2.5,2.5 0 0 1 2.5,-2.5 2.5,2.5 0 0 1 2.5,2.5 z M 374.0134,575.99518 a 2.5,2.5 0 0 1 -2.5,2.5 2.5,2.5 0 0 1 -2.5,-2.5 2.5,2.5 0 0 1 2.5,-2.5 2.5,2.5 0 0 1 2.5,2.5 z m 0,0 a 2.5,2.5 0 0 1 -2.5,2.5 2.5,2.5 0 0 1 -2.5,-2.5 2.5,2.5 0 0 1 2.5,-2.5 2.5,2.5 0 0 1 2.5,2.5 z M 305.56699,252.4146 a 2.5,2.5 0 0 1 -2.5,2.5 2.5,2.5 0 0 1 -2.5,-2.5 2.5,2.5 0 0 1 2.5,-2.5 2.5,2.5 0 0 1 2.5,2.5 z m 0,0 a 2.5,2.5 0 0 1 -2.5,2.5 2.5,2.5 0 0 1 -2.5,-2.5 2.5,2.5 0 0 1 2.5,-2.5 2.5,2.5 0 0 1 2.5,2.5 z M 572.005,442.93109 a 2.5,2.5 0 0 1 -2.5,2.5 2.5,2.5 0 0 1 -2.5,-2.5 2.5,2.5 0 0 1 2.5,-2.5 2.5,2.5 0 0 1 2.5,2.5 z m 0,0 a 2.5,2.5 0 0 1 -2.5,2.5 2.5,2.5 0 0 1 -2.5,-2.5 2.5,2.5 0 0 1 2.5,-2.5 2.5,2.5 0 0 1 2.5,2.5 z m -321.9747,39.11432 a 2.5,2.5 0 0 1 -2.5,2.5 2.5,2.5 0 0 1 -2.5,-2.5 2.5,2.5 0 0 1 2.5,-2.5 2.5,2.5 0 0 1 2.5,2.5 z m 0,0 a 2.5,2.5 0 0 1 -2.5,2.5 2.5,2.5 0 0 1 -2.5,-2.5 2.5,2.5 0 0 1 2.5,-2.5 2.5,2.5 0 0 1 2.5,2.5 z M 458.95511,238.13409 a 2.5,2.5 0 0 1 -2.5,2.5 2.5,2.5 0 0 1 -2.5,-2.5 2.5,2.5 0 0 1 2.5,-2.5 2.5,2.5 0 0 1 2.5,2.5 z m 0,0 a 2.5,2.5 0 0 1 -2.5,2.5 2.5,2.5 0 0 1 -2.5,-2.5 2.5,2.5 0 0 1 2.5,-2.5 2.5,2.5 0 0 1 2.5,2.5 z m 10.58398,317.77839 a 2.5,2.5 0 0 1 -2.5,2.5 2.5,2.5 0 0 1 -2.5,-2.5 2.5,2.5 0 0 1 2.5,-2.5 2.5,2.5 0 0 1 2.5,2.5 z m 0,0 a 2.5,2.5 0 0 1 -2.5,2.5 2.5,2.5 0 0 1 -2.5,-2.5 2.5,2.5 0 0 1 2.5,-2.5 2.5,2.5 0 0 1 2.5,2.5 z M 249.315,331.0192 a 2.5,2.5 0 0 1 -2.5,2.5 2.5,2.5 0 0 1 -2.5,-2.5 2.5,2.5 0 0 1 2.5,-2.5 2.5,2.5 0 0 1 2.5,2.5 z m 0,0 a 2.5,2.5 0 0 1 -2.5,2.5 2.5,2.5 0 0 1 -2.5,-2.5 2.5,2.5 0 0 1 2.5,-2.5 2.5,2.5 0 0 1 2.5,2.5 z m 311.1048,16.90139 a 2.5,2.5 0 0 1 -2.5,2.5 2.5,2.5 0 0 1 -2.5,-2.5 2.5,2.5 0 0 1 2.5,-2.5 2.5,2.5 0 0 1 2.5,2.5 z m 0,0 a 2.5,2.5 0 0 1 -2.5,2.5 2.5,2.5 0 0 1 -2.5,-2.5 2.5,2.5 0 0 1 2.5,-2.5 2.5,2.5 0 0 1 2.5,2.5 z m -238.35168,195.6568 a 2.5,2.5 0 0 1 -2.5,2.5 2.5,2.5 0 0 1 -2.5,-2.5 2.5,2.5 0 0 1 2.5,-2.5 2.5,2.5 0 0 1 2.5,2.5 z m 0,0 a 2.5,2.5 0 0 1 -2.5,2.5 2.5,2.5 0 0 1 -2.5,-2.5 2.5,2.5 0 0 1 2.5,-2.5 2.5,2.5 0 0 1 2.5,2.5 z M 365.20969,241.4696 a 2.5,2.5 0 0 1 -2.5,2.5 2.5,2.5 0 0 1 -2.5,-2.5 2.5,2.5 0 0 1 2.5,-2.5 2.5,2.5 0 0 1 2.5,2.5 z m 0,0 a 2.5,2.5 0 0 1 -2.5,2.5 2.5,2.5 0 0 1 -2.5,-2.5 2.5,2.5 0 0 1 2.5,-2.5 2.5,2.5 0 0 1 2.5,2.5 z m 170.45382,249.2746 a 2.5,2.5 0 0 1 -2.5,2.5 2.5,2.5 0 0 1 -2.5,-2.5 2.5,2.5 0 0 1 2.5,-2.5 2.5,2.5 0 0 1 2.5,2.5 z m 0,0 a 2.5,2.5 0 0 1 -2.5,2.5 2.5,2.5 0 0 1 -2.5,-2.5 2.5,2.5 0 0 1 2.5,-2.5 2.5,2.5 0 0 1 2.5,2.5 z M 244.7101,422.79919 a 2.5,2.5 0 0 1 -2.5,2.5 2.5,2.5 0 0 1 -2.5,-2.5 2.5,2.5 0 0 1 2.5,-2.5 2.5,2.5 0 0 1 2.5,2.5 z m 0,0 a 2.5,2.5 0 0 1 -2.5,2.5 2.5,2.5 0 0 1 -2.5,-2.5 2.5,2.5 0 0 1 2.5,-2.5 2.5,2.5 0 0 1 2.5,2.5 z M 502.36639,277.9324 a 2.5,2.5 0 0 1 -2.5,2.5 2.5,2.5 0 0 1 -2.5,-2.5 2.5,2.5 0 0 1 2.5,-2.5 2.5,2.5 0 0 1 2.5,2.5 z m 0,0 a 2.5,2.5 0 0 1 -2.5,2.5 2.5,2.5 0 0 1 -2.5,-2.5 2.5,2.5 0 0 1 2.5,-2.5 2.5,2.5 0 0 1 2.5,2.5 z m -91.13958,277.82328 a 2.5,2.5 0 0 1 -2.5,2.5 2.5,2.5 0 0 1 -2.5,-2.5 2.5,2.5 0 0 1 2.5,-2.5 2.5,2.5 0 0 1 2.5,2.5 z m 0,0 a 2.5,2.5 0 0 1 -2.5,2.5 2.5,2.5 0 0 1 -2.5,-2.5 2.5,2.5 0 0 1 2.5,-2.5 2.5,2.5 0 0 1 2.5,2.5 z M 292.08331,292.2399 a 2.5,2.5 0 0 1 -2.5,2.5 2.5,2.5 0 0 1 -2.5,-2.5 2.5,2.5 0 0 1 2.5,-2.5 2.5,2.5 0 0 1 2.5,2.5 z m 0,0 a 2.5,2.5 0 0 1 -2.5,2.5 2.5,2.5 0 0 1 -2.5,-2.5 2.5,2.5 0 0 1 2.5,-2.5 2.5,2.5 0 0 1 2.5,2.5 z M 554.99548,404.814 a 2.5,2.5 0 0 1 -2.5,2.5 2.5,2.5 0 0 1 -2.5,-2.5 2.5,2.5 0 0 1 2.5,-2.5 2.5,2.5 0 0 1 2.5,2.5 z m 0,0 a 2.5,2.5 0 0 1 -2.5,2.5 2.5,2.5 0 0 1 -2.5,-2.5 2.5,2.5 0 0 1 2.5,-2.5 2.5,2.5 0 0 1 2.5,2.5 z m -266.89517,93.52511 a 2.5,2.5 0 0 1 -2.5,2.5 2.5,2.5 0 0 1 -2.5,-2.5 2.5,2.5 0 0 1 2.5,-2.5 2.5,2.5 0 0 1 2.5,2.5 z m 0,0 a 2.5,2.5 0 0 1 -2.5,2.5 2.5,2.5 0 0 1 -2.5,-2.5 2.5,2.5 0 0 1 2.5,-2.5 2.5,2.5 0 0 1 2.5,2.5 z m 132.11838,-246.4257 a 2.5,2.5 0 0 1 -2.5,2.5 2.5,2.5 0 0 1 -2.5,-2.5 2.5,2.5 0 0 1 2.5,-2.5 2.5,2.5 0 0 1 2.5,2.5 z m 0,0 a 2.5,2.5 0 0 1 -2.5,2.5 2.5,2.5 0 0 1 -2.5,-2.5 2.5,2.5 0 0 1 2.5,-2.5 2.5,2.5 0 0 1 2.5,2.5 z m 68.23712,267.86461 a 2.5,2.5 0 0 1 -2.5,2.5 2.5,2.5 0 0 1 -2.5,-2.5 2.5,2.5 0 0 1 2.5,-2.5 2.5,2.5 0 0 1 2.5,2.5 z m 0,0 a 2.5,2.5 0 0 1 -2.5,2.5 2.5,2.5 0 0 1 -2.5,-2.5 2.5,2.5 0 0 1 2.5,-2.5 2.5,2.5 0 0 1 2.5,2.5 z M 259.88849,370.0899 a 2.5,2.5 0 0 1 -2.5,2.5 2.5,2.5 0 0 1 -2.5,-2.5 2.5,2.5 0 0 1 2.5,-2.5 2.5,2.5 0 0 1 2.5,2.5 z m 0,0 a 2.5,2.5 0 0 1 -2.5,2.5 2.5,2.5 0 0 1 -2.5,-2.5 2.5,2.5 0 0 1 2.5,-2.5 2.5,2.5 0 0 1 2.5,2.5 z m 266.4953,-43.49841 a 2.5,2.5 0 0 1 -2.5,2.5 2.5,2.5 0 0 1 -2.5,-2.5 2.5,2.5 0 0 1 2.5,-2.5 2.5,2.5 0 0 1 2.5,2.5 z m 0,0 a 2.5,2.5 0 0 1 -2.5,2.5 2.5,2.5 0 0 1 -2.5,-2.5 2.5,2.5 0 0 1 2.5,-2.5 2.5,2.5 0 0 1 2.5,2.5 z M 361.2323,536.1698 a 2.5,2.5 0 0 1 -2.5,2.5 2.5,2.5 0 0 1 -2.5,-2.5 2.5,2.5 0 0 1 2.5,-2.5 2.5,2.5 0 0 1 2.5,2.5 z m 0,0 a 2.5,2.5 0 0 1 -2.5,2.5 2.5,2.5 0 0 1 -2.5,-2.5 2.5,2.5 0 0 1 2.5,-2.5 2.5,2.5 0 0 1 2.5,2.5 z M 341.68521,273.2645 a 2.5,2.5 0 0 1 -2.5,2.5 2.5,2.5 0 0 1 -2.5,-2.5 2.5,2.5 0 0 1 2.5,-2.5 2.5,2.5 0 0 1 2.5,2.5 z m 0,0 a 2.5,2.5 0 0 1 -2.5,2.5 2.5,2.5 0 0 1 -2.5,-2.5 2.5,2.5 0 0 1 2.5,-2.5 2.5,2.5 0 0 1 2.5,2.5 z m 189.67416,178.47119 a 2.5,2.5 0 0 1 -2.5,2.5 2.5,2.5 0 0 1 -2.5,-2.5 2.5,2.5 0 0 1 2.5,-2.5 2.5,2.5 0 0 1 2.5,2.5 z m 0,0 a 2.5,2.5 0 0 1 -2.5,2.5 2.5,2.5 0 0 1 -2.5,-2.5 2.5,2.5 0 0 1 2.5,-2.5 2.5,2.5 0 0 1 2.5,2.5 z M 274.1424,448.2959 a 2.5,2.5 0 0 1 -2.5,2.5 2.5,2.5 0 0 1 -2.5,-2.5 2.5,2.5 0 0 1 2.5,-2.5 2.5,2.5 0 0 1 2.5,2.5 z m 0,0 a 2.5,2.5 0 0 1 -2.5,2.5 2.5,2.5 0 0 1 -2.5,-2.5 2.5,2.5 0 0 1 2.5,-2.5 2.5,2.5 0 0 1 2.5,2.5 z M 463.7439,279.2106 a 2.5,2.5 0 0 1 -2.5,2.5 2.5,2.5 0 0 1 -2.5,-2.5 2.5,2.5 0 0 1 2.5,-2.5 2.5,2.5 0 0 1 2.5,2.5 z m 0,0 a 2.5,2.5 0 0 1 -2.5,2.5 2.5,2.5 0 0 1 -2.5,-2.5 2.5,2.5 0 0 1 2.5,-2.5 2.5,2.5 0 0 1 2.5,2.5 z m -25.27561,249.57529 a 2.5,2.5 0 0 1 -2.5,2.5 2.5,2.5 0 0 1 -2.5,-2.5 2.5,2.5 0 0 1 2.5,-2.5 2.5,2.5 0 0 1 2.5,2.5 z m 0,0 a 2.5,2.5 0 0 1 -2.5,2.5 2.5,2.5 0 0 1 -2.5,-2.5 2.5,2.5 0 0 1 2.5,-2.5 2.5,2.5 0 0 1 2.5,2.5 z M 290.43741,330.2435 a 2.5,2.5 0 0 1 -2.5,2.5 2.5,2.5 0 0 1 -2.5,-2.5 2.5,2.5 0 0 1 2.5,-2.5 2.5,2.5 0 0 1 2.5,2.5 z m 0,0 a 2.5,2.5 0 0 1 -2.5,2.5 2.5,2.5 0 0 1 -2.5,-2.5 2.5,2.5 0 0 1 2.5,-2.5 2.5,2.5 0 0 1 2.5,2.5 z m 240.12936,45.8139 a 2.5,2.5 0 0 1 -2.5,2.5 2.5,2.5 0 0 1 -2.5,-2.5 2.5,2.5 0 0 1 2.5,-2.5 2.5,2.5 0 0 1 2.5,2.5 z m 0,0 a 2.5,2.5 0 0 1 -2.5,2.5 2.5,2.5 0 0 1 -2.5,-2.5 2.5,2.5 0 0 1 2.5,-2.5 2.5,2.5 0 0 1 2.5,2.5 z M 325.2738,502.79459 a 2.5,2.5 0 0 1 -2.5,2.5 2.5,2.5 0 0 1 -2.5,-2.5 2.5,2.5 0 0 1 2.5,-2.5 2.5,2.5 0 0 1 2.5,2.5 z m 0,0 a 2.5,2.5 0 0 1 -2.5,2.5 2.5,2.5 0 0 1 -2.5,-2.5 2.5,2.5 0 0 1 2.5,-2.5 2.5,2.5 0 0 1 2.5,2.5 z M 390.18491,273.742 a 2.5,2.5 0 0 1 -2.5,2.5 2.5,2.5 0 0 1 -2.5,-2.5 2.5,2.5 0 0 1 2.5,-2.5 2.5,2.5 0 0 1 2.5,2.5 z m 0,0 a 2.5,2.5 0 0 1 -2.5,2.5 2.5,2.5 0 0 1 -2.5,-2.5 2.5,2.5 0 0 1 2.5,-2.5 2.5,2.5 0 0 1 2.5,2.5 z m 105.4096,209.88901 a 2.5,2.5 0 0 1 -2.5,2.5 2.5,2.5 0 0 1 -2.5,-2.5 2.5,2.5 0 0 1 2.5,-2.5 2.5,2.5 0 0 1 2.5,2.5 z m 0,0 a 2.5,2.5 0 0 1 -2.5,2.5 2.5,2.5 0 0 1 -2.5,-2.5 2.5,2.5 0 0 1 2.5,-2.5 2.5,2.5 0 0 1 2.5,2.5 z m -216.5173,-82.43332 a 2.5,2.5 0 0 1 -2.5,2.5 2.5,2.5 0 0 1 -2.5,-2.5 2.5,2.5 0 0 1 2.5,-2.5 2.5,2.5 0 0 1 2.5,2.5 z m 0,0 a 2.5,2.5 0 0 1 -2.5,2.5 2.5,2.5 0 0 1 -2.5,-2.5 2.5,2.5 0 0 1 2.5,-2.5 2.5,2.5 0 0 1 2.5,2.5 z m 212.36609,-84.2847 a 2.5,2.5 0 0 1 -2.5,2.5 2.5,2.5 0 0 1 -2.5,-2.5 2.5,2.5 0 0 1 2.5,-2.5 2.5,2.5 0 0 1 2.5,2.5 z m 0,0 a 2.5,2.5 0 0 1 -2.5,2.5 2.5,2.5 0 0 1 -2.5,-2.5 2.5,2.5 0 0 1 2.5,-2.5 2.5,2.5 0 0 1 2.5,2.5 z m -98.27271,202.72379 a 2.5,2.5 0 0 1 -2.5,2.5 2.5,2.5 0 0 1 -2.5,-2.5 2.5,2.5 0 0 1 2.5,-2.5 2.5,2.5 0 0 1 2.5,2.5 z m 0,0 a 2.5,2.5 0 0 1 -2.5,2.5 2.5,2.5 0 0 1 -2.5,-2.5 2.5,2.5 0 0 1 2.5,-2.5 2.5,2.5 0 0 1 2.5,2.5 z M 329.6243,306.82999 a 2.5,2.5 0 0 1 -2.5,2.5 2.5,2.5 0 0 1 -2.5,-2.5 2.5,2.5 0 0 1 2.5,-2.5 2.5,2.5 0 0 1 2.5,2.5 z m 0,0 a 2.5,2.5 0 0 1 -2.5,2.5 2.5,2.5 0 0 1 -2.5,-2.5 2.5,2.5 0 0 1 2.5,-2.5 2.5,2.5 0 0 1 2.5,2.5 z M 517.48138,419.1875 a 2.5,2.5 0 0 1 -2.5,2.5 2.5,2.5 0 0 1 -2.5,-2.5 2.5,2.5 0 0 1 2.5,-2.5 2.5,2.5 0 0 1 2.5,2.5 z m 0,0 a 2.5,2.5 0 0 1 -2.5,2.5 2.5,2.5 0 0 1 -2.5,-2.5 2.5,2.5 0 0 1 2.5,-2.5 2.5,2.5 0 0 1 2.5,2.5 z M 306.1911,462.58401 a 2.5,2.5 0 0 1 -2.5,2.5 2.5,2.5 0 0 1 -2.5,-2.5 2.5,2.5 0 0 1 2.5,-2.5 2.5,2.5 0 0 1 2.5,2.5 z m 0,0 a 2.5,2.5 0 0 1 -2.5,2.5 2.5,2.5 0 0 1 -2.5,-2.5 2.5,2.5 0 0 1 2.5,-2.5 2.5,2.5 0 0 1 2.5,2.5 z m 124.6163,-172.1285 a 2.5,2.5 0 0 1 -2.5,2.5 2.5,2.5 0 0 1 -2.5,-2.5 2.5,2.5 0 0 1 2.5,-2.5 2.5,2.5 0 0 1 2.5,2.5 z m 0,0 a 2.5,2.5 0 0 1 -2.5,2.5 2.5,2.5 0 0 1 -2.5,-2.5 2.5,2.5 0 0 1 2.5,-2.5 2.5,2.5 0 0 1 2.5,2.5 z m 24.0084,207.9284 a 2.5,2.5 0 0 1 -2.5,2.5 2.5,2.5 0 0 1 -2.5,-2.5 2.5,2.5 0 0 1 2.5,-2.5 2.5,2.5 0 0 1 2.5,2.5 z m 0,0 a 2.5,2.5 0 0 1 -2.5,2.5 2.5,2.5 0 0 1 -2.5,-2.5 2.5,2.5 0 0 1 2.5,-2.5 2.5,2.5 0 0 1 2.5,2.5 z M 299.08121,363.36969 a 2.5,2.5 0 0 1 -2.5,2.5 2.5,2.5 0 0 1 -2.5,-2.5 2.5,2.5 0 0 1 2.5,-2.5 2.5,2.5 0 0 1 2.5,2.5 z m 0,0 a 2.5,2.5 0 0 1 -2.5,2.5 2.5,2.5 0 0 1 -2.5,-2.5 2.5,2.5 0 0 1 2.5,-2.5 2.5,2.5 0 0 1 2.5,2.5 z M 501.9241,357.8237 a 2.5,2.5 0 0 1 -2.5,2.5 2.5,2.5 0 0 1 -2.5,-2.5 2.5,2.5 0 0 1 2.5,-2.5 2.5,2.5 0 0 1 2.5,2.5 z m 0,0 a 2.5,2.5 0 0 1 -2.5,2.5 2.5,2.5 0 0 1 -2.5,-2.5 2.5,2.5 0 0 1 2.5,-2.5 2.5,2.5 0 0 1 2.5,2.5 z M 358.3923,496.70139 a 2.5,2.5 0 0 1 -2.5,2.5 2.5,2.5 0 0 1 -2.5,-2.5 2.5,2.5 0 0 1 2.5,-2.5 2.5,2.5 0 0 1 2.5,2.5 z m 0,0 a 2.5,2.5 0 0 1 -2.5,2.5 2.5,2.5 0 0 1 -2.5,-2.5 2.5,2.5 0 0 1 2.5,-2.5 2.5,2.5 0 0 1 2.5,2.5 z m 11.84201,-196.17048 a 2.5,2.5 0 0 1 -2.5,2.5 2.5,2.5 0 0 1 -2.5,-2.5 2.5,2.5 0 0 1 2.5,-2.5 2.5,2.5 0 0 1 2.5,2.5 z m 0,0 a 2.5,2.5 0 0 1 -2.5,2.5 2.5,2.5 0 0 1 -2.5,-2.5 2.5,2.5 0 0 1 2.5,-2.5 2.5,2.5 0 0 1 2.5,2.5 z M 491.9924,450.702 a 2.5,2.5 0 0 1 -2.5,2.5 2.5,2.5 0 0 1 -2.5,-2.5 2.5,2.5 0 0 1 2.5,-2.5 2.5,2.5 0 0 1 2.5,2.5 z m 0,0 a 2.5,2.5 0 0 1 -2.5,2.5 2.5,2.5 0 0 1 -2.5,-2.5 2.5,2.5 0 0 1 2.5,-2.5 2.5,2.5 0 0 1 2.5,2.5 z m -188.06,-28.02369 a 2.5,2.5 0 0 1 -2.5,2.5 2.5,2.5 0 0 1 -2.5,-2.5 2.5,2.5 0 0 1 2.5,-2.5 2.5,2.5 0 0 1 2.5,2.5 z m 0,0 a 2.5,2.5 0 0 1 -2.5,2.5 2.5,2.5 0 0 1 -2.5,-2.5 2.5,2.5 0 0 1 2.5,-2.5 2.5,2.5 0 0 1 2.5,2.5 z M 458.8866,318.1062 a 2.5,2.5 0 0 1 -2.5,2.5 2.5,2.5 0 0 1 -2.5,-2.5 2.5,2.5 0 0 1 2.5,-2.5 2.5,2.5 0 0 1 2.5,2.5 z m 0,0 a 2.5,2.5 0 0 1 -2.5,2.5 2.5,2.5 0 0 1 -2.5,-2.5 2.5,2.5 0 0 1 2.5,-2.5 2.5,2.5 0 0 1 2.5,2.5 z m -42.88529,178.67081 a 2.5,2.5 0 0 1 -2.5,2.5 2.5,2.5 0 0 1 -2.5,-2.5 2.5,2.5 0 0 1 2.5,-2.5 2.5,2.5 0 0 1 2.5,2.5 z m 0,0 a 2.5,2.5 0 0 1 -2.5,2.5 2.5,2.5 0 0 1 -2.5,-2.5 2.5,2.5 0 0 1 2.5,-2.5 2.5,2.5 0 0 1 2.5,2.5 z M 328.4957,338.8497 a 2.5,2.5 0 0 1 -2.5,2.5 2.5,2.5 0 0 1 -2.5,-2.5 2.5,2.5 0 0 1 2.5,-2.5 2.5,2.5 0 0 1 2.5,2.5 z m 0,0 a 2.5,2.5 0 0 1 -2.5,2.5 2.5,2.5 0 0 1 -2.5,-2.5 2.5,2.5 0 0 1 2.5,-2.5 2.5,2.5 0 0 1 2.5,2.5 z m 168.16699,56.3356 a 2.5,2.5 0 0 1 -2.5,2.5 2.5,2.5 0 0 1 -2.5,-2.5 2.5,2.5 0 0 1 2.5,-2.5 2.5,2.5 0 0 1 2.5,2.5 z m 0,0 a 2.5,2.5 0 0 1 -2.5,2.5 2.5,2.5 0 0 1 -2.5,-2.5 2.5,2.5 0 0 1 2.5,-2.5 2.5,2.5 0 0 1 2.5,2.5 z m -159.14148,70.7482 a 2.5,2.5 0 0 1 -2.5,2.5 2.5,2.5 0 0 1 -2.5,-2.5 2.5,2.5 0 0 1 2.5,-2.5 2.5,2.5 0 0 1 2.5,2.5 z m 0,0 a 2.5,2.5 0 0 1 -2.5,2.5 2.5,2.5 0 0 1 -2.5,-2.5 2.5,2.5 0 0 1 2.5,-2.5 2.5,2.5 0 0 1 2.5,2.5 z m 68.2944,-156.7301 a 2.5,2.5 0 0 1 -2.5,2.5 2.5,2.5 0 0 1 -2.5,-2.5 2.5,2.5 0 0 1 2.5,-2.5 2.5,2.5 0 0 1 2.5,2.5 z m 0,0 a 2.5,2.5 0 0 1 -2.5,2.5 2.5,2.5 0 0 1 -2.5,-2.5 2.5,2.5 0 0 1 2.5,-2.5 2.5,2.5 0 0 1 2.5,2.5 z m 54.46308,158.67941 a 2.5,2.5 0 0 1 -2.5,2.5 2.5,2.5 0 0 1 -2.5,-2.5 2.5,2.5 0 0 1 2.5,-2.5 2.5,2.5 0 0 1 2.5,2.5 z m 0,0 a 2.5,2.5 0 0 1 -2.5,2.5 2.5,2.5 0 0 1 -2.5,-2.5 2.5,2.5 0 0 1 2.5,-2.5 2.5,2.5 0 0 1 2.5,2.5 z m -144.53568,-78.6987 a 2.5,2.5 0 0 1 -2.5,2.5 2.5,2.5 0 0 1 -2.5,-2.5 2.5,2.5 0 0 1 2.5,-2.5 2.5,2.5 0 0 1 2.5,2.5 z m 0,0 a 2.5,2.5 0 0 1 -2.5,2.5 2.5,2.5 0 0 1 -2.5,-2.5 2.5,2.5 0 0 1 2.5,-2.5 2.5,2.5 0 0 1 2.5,2.5 z m 156.63709,-38.82 a 2.5,2.5 0 0 1 -2.5,2.5 2.5,2.5 0 0 1 -2.5,-2.5 2.5,2.5 0 0 1 2.5,-2.5 2.5,2.5 0 0 1 2.5,2.5 z m 0,0 a 2.5,2.5 0 0 1 -2.5,2.5 2.5,2.5 0 0 1 -2.5,-2.5 2.5,2.5 0 0 1 2.5,-2.5 2.5,2.5 0 0 1 2.5,2.5 z m -87.51859,131.76318 a 2.5,2.5 0 0 1 -2.5,2.5 2.5,2.5 0 0 1 -2.5,-2.5 2.5,2.5 0 0 1 2.5,-2.5 2.5,2.5 0 0 1 2.5,2.5 z m 0,0 a 2.5,2.5 0 0 1 -2.5,2.5 2.5,2.5 0 0 1 -2.5,-2.5 2.5,2.5 0 0 1 2.5,-2.5 2.5,2.5 0 0 1 2.5,2.5 z M 360.8963,329.00659 a 2.5,2.5 0 0 1 -2.5,2.5 2.5,2.5 0 0 1 -2.5,-2.5 2.5,2.5 0 0 1 2.5,-2.5 2.5,2.5 0 0 1 2.5,2.5 z m 0,0 a 2.5,2.5 0 0 1 -2.5,2.5 2.5,2.5 0 0 1 -2.5,-2.5 2.5,2.5 0 0 1 2.5,-2.5 2.5,2.5 0 0 1 2.5,2.5 z m 118.5983,94.73331 a 2.5,2.5 0 0 1 -2.5,2.5 2.5,2.5 0 0 1 -2.5,-2.5 2.5,2.5 0 0 1 2.5,-2.5 2.5,2.5 0 0 1 2.5,2.5 z m 0,0 a 2.5,2.5 0 0 1 -2.5,2.5 2.5,2.5 0 0 1 -2.5,-2.5 2.5,2.5 0 0 1 2.5,-2.5 2.5,2.5 0 0 1 2.5,2.5 z m -148.25479,10.0303 a 2.5,2.5 0 0 1 -2.5,2.5 2.5,2.5 0 0 1 -2.5,-2.5 2.5,2.5 0 0 1 2.5,-2.5 2.5,2.5 0 0 1 2.5,2.5 z m 0,0 a 2.5,2.5 0 0 1 -2.5,2.5 2.5,2.5 0 0 1 -2.5,-2.5 2.5,2.5 0 0 1 2.5,-2.5 2.5,2.5 0 0 1 2.5,2.5 z m 100.3471,-105.2193 a 2.5,2.5 0 0 1 -2.5,2.5 2.5,2.5 0 0 1 -2.5,-2.5 2.5,2.5 0 0 1 2.5,-2.5 2.5,2.5 0 0 1 2.5,2.5 z m 0,0 a 2.5,2.5 0 0 1 -2.5,2.5 2.5,2.5 0 0 1 -2.5,-2.5 2.5,2.5 0 0 1 2.5,-2.5 2.5,2.5 0 0 1 2.5,2.5 z m -2.867,142.1738 a 2.5,2.5 0 0 1 -2.5,2.5 2.5,2.5 0 0 1 -2.5,-2.5 2.5,2.5 0 0 1 2.5,-2.5 2.5,2.5 0 0 1 2.5,2.5 z m 0,0 a 2.5,2.5 0 0 1 -2.5,2.5 2.5,2.5 0 0 1 -2.5,-2.5 2.5,2.5 0 0 1 2.5,-2.5 2.5,2.5 0 0 1 2.5,2.5 z M 336.91849,366.3421 a 2.5,2.5 0 0 1 -2.5,2.5 2.5,2.5 0 0 1 -2.5,-2.5 2.5,2.5 0 0 1 2.5,-2.5 2.5,2.5 0 0 1 2.5,2.5 z m 0,0 a 2.5,2.5 0 0 1 -2.5,2.5 2.5,2.5 0 0 1 -2.5,-2.5 2.5,2.5 0 0 1 2.5,-2.5 2.5,2.5 0 0 1 2.5,2.5 z M 471.94,380.97131 a 2.5,2.5 0 0 1 -2.5,2.5 2.5,2.5 0 0 1 -2.5,-2.5 2.5,2.5 0 0 1 2.5,-2.5 2.5,2.5 0 0 1 2.5,2.5 z m 0,0 a 2.5,2.5 0 0 1 -2.5,2.5 2.5,2.5 0 0 1 -2.5,-2.5 2.5,2.5 0 0 1 2.5,-2.5 2.5,2.5 0 0 1 2.5,2.5 z m -106.87579,78.5152 a 2.5,2.5 0 0 1 -2.5,2.5 2.5,2.5 0 0 1 -2.5,-2.5 2.5,2.5 0 0 1 2.5,-2.5 2.5,2.5 0 0 1 2.5,2.5 z m 0,0 a 2.5,2.5 0 0 1 -2.5,2.5 2.5,2.5 0 0 1 -2.5,-2.5 2.5,2.5 0 0 1 2.5,-2.5 2.5,2.5 0 0 1 2.5,2.5 z m 25.1637,-126.9508 a 2.5,2.5 0 0 1 -2.5,2.5 2.5,2.5 0 0 1 -2.5,-2.5 2.5,2.5 0 0 1 2.5,-2.5 2.5,2.5 0 0 1 2.5,2.5 z" />
    </g>
  </g>
</svg>
