<?xml version="1.0" encoding="UTF-8" standalone="no"?>
<svg
   style="font-style:normal;font-weight:normal;font-size:12px;font-family:Dialog;color-interpolation:auto;fill:#000000;fill-opacity:1;stroke:#000000;stroke-width:1;stroke-linecap:square;stroke-linejoin:miter;stroke-miterlimit:10;stroke-dasharray:none;stroke-dashoffset:0;stroke-opacity:1;color-rendering:auto;image-rendering:auto;shape-rendering:auto;text-rendering:auto"
   width="800"
   height="800"
   version="1.1"
   id="svg5608"
   sodipodi:docname="output_220918_170600.svg"
   xmlns:inkscape="http://www.inkscape.org/namespaces/inkscape"
   xmlns:sodipodi="http://sodipodi.sourceforge.net/DTD/sodipodi-0.dtd"
   xmlns="http://www.w3.org/2000/svg"
   xmlns:svg="http://www.w3.org/2000/svg">
  <sodipodi:namedview
     id="namedview5610"
     pagecolor="#ffffff"
     bordercolor="#000000"
     borderopacity="0.25"
     inkscape:showpageshadow="2"
     inkscape:pageopacity="0.0"
     inkscape:pagecheckerboard="0"
     inkscape:deskcolor="#d1d1d1"
     showgrid="false" />
  <!--Generated by the Batik Graphics2D SVG Generator-->
  <defs
     id="genericDefs" />
  <g
     id="g5606">
    <g
       style="fill:#ffffff;stroke:#ffffff;stroke-linecap:round"
       id="g4154">
      <path
         id="circle4152"
         style="stroke:none"
         d="m 390.22791,332.53571 a 2.5,2.5 0 0 1 -2.5,2.5 2.5,2.5 0 0 1 -2.5,-2.5 2.5,2.5 0 0 1 2.5,-2.5 2.5,2.5 0 0 1 2.5,2.5 z" />
    </g>
    <g
       style="stroke-linecap:round"
       id="g5604">
      <path
         id="circle4156"
         style="fill:none"
         d="m 390.22791,332.53571 a 2.5,2.5 0 0 1 -2.5,2.5 2.5,2.5 0 0 1 -2.5,-2.5 2.5,2.5 0 0 1 2.5,-2.5 2.5,2.5 0 0 1 2.5,2.5 z" />
      <path
         id="circle4158"
         style="fill:#ffffff;stroke:none"
         d="m 365.06421,459.48651 a 2.5,2.5 0 0 1 -2.5,2.5 2.5,2.5 0 0 1 -2.5,-2.5 2.5,2.5 0 0 1 2.5,-2.5 2.5,2.5 0 0 1 2.5,2.5 z" />
      <path
         id="circle4160"
         style="fill:none"
         d="m 365.06421,459.48651 a 2.5,2.5 0 0 1 -2.5,2.5 2.5,2.5 0 0 1 -2.5,-2.5 2.5,2.5 0 0 1 2.5,-2.5 2.5,2.5 0 0 1 2.5,2.5 z" />
      <path
         id="circle4162"
         style="fill:#ffffff;stroke:none"
         d="m 471.94,380.97131 a 2.5,2.5 0 0 1 -2.5,2.5 2.5,2.5 0 0 1 -2.5,-2.5 2.5,2.5 0 0 1 2.5,-2.5 2.5,2.5 0 0 1 2.5,2.5 z" />
      <path
         id="circle4164"
         style="fill:none"
         d="m 471.94,380.97131 a 2.5,2.5 0 0 1 -2.5,2.5 2.5,2.5 0 0 1 -2.5,-2.5 2.5,2.5 0 0 1 2.5,-2.5 2.5,2.5 0 0 1 2.5,2.5 z" />
      <path
         id="circle4166"
         style="fill:#ffffff;stroke:none"
         d="m 336.91849,366.3421 a 2.5,2.5 0 0 1 -2.5,2.5 2.5,2.5 0 0 1 -2.5,-2.5 2.5,2.5 0 0 1 2.5,-2.5 2.5,2.5 0 0 1 2.5,2.5 z" />
      <path
         id="circle4168"
         style="fill:none"
         d="m 336.91849,366.3421 a 2.5,2.5 0 0 1 -2.5,2.5 2.5,2.5 0 0 1 -2.5,-2.5 2.5,2.5 0 0 1 2.5,-2.5 2.5,2.5 0 0 1 2.5,2.5 z" />
      <path
         id="circle4170"
         style="fill:#ffffff;stroke:none"
         d="m 428.71991,470.7247 a 2.5,2.5 0 0 1 -2.5,2.5 2.5,2.5 0 0 1 -2.5,-2.5 2.5,2.5 0 0 1 2.5,-2.5 2.5,2.5 0 0 1 2.5,2.5 z" />
      <path
         id="circle4172"
         style="fill:none"
         d="m 428.71991,470.7247 a 2.5,2.5 0 0 1 -2.5,2.5 2.5,2.5 0 0 1 -2.5,-2.5 2.5,2.5 0 0 1 2.5,-2.5 2.5,2.5 0 0 1 2.5,2.5 z" />
      <path
         id="circle4174"
         style="fill:#ffffff;stroke:none"
         d="m 431.58691,328.5509 a 2.5,2.5 0 0 1 -2.5,2.5 2.5,2.5 0 0 1 -2.5,-2.5 2.5,2.5 0 0 1 2.5,-2.5 2.5,2.5 0 0 1 2.5,2.5 z" />
      <path
         id="circle4176"
         style="fill:none"
         d="m 431.58691,328.5509 a 2.5,2.5 0 0 1 -2.5,2.5 2.5,2.5 0 0 1 -2.5,-2.5 2.5,2.5 0 0 1 2.5,-2.5 2.5,2.5 0 0 1 2.5,2.5 z" />
      <path
         id="circle4178"
         style="fill:#ffffff;stroke:none"
         d="m 331.23981,433.7702 a 2.5,2.5 0 0 1 -2.5,2.5 2.5,2.5 0 0 1 -2.5,-2.5 2.5,2.5 0 0 1 2.5,-2.5 2.5,2.5 0 0 1 2.5,2.5 z" />
      <path
         id="circle4180"
         style="fill:none"
         d="m 331.23981,433.7702 a 2.5,2.5 0 0 1 -2.5,2.5 2.5,2.5 0 0 1 -2.5,-2.5 2.5,2.5 0 0 1 2.5,-2.5 2.5,2.5 0 0 1 2.5,2.5 z" />
      <path
         id="circle4182"
         style="fill:#ffffff;stroke:none"
         d="m 479.4946,423.7399 a 2.5,2.5 0 0 1 -2.5,2.5 2.5,2.5 0 0 1 -2.5,-2.5 2.5,2.5 0 0 1 2.5,-2.5 2.5,2.5 0 0 1 2.5,2.5 z" />
      <path
         id="circle4184"
         style="fill:none"
         d="m 479.4946,423.7399 a 2.5,2.5 0 0 1 -2.5,2.5 2.5,2.5 0 0 1 -2.5,-2.5 2.5,2.5 0 0 1 2.5,-2.5 2.5,2.5 0 0 1 2.5,2.5 z" />
      <path
         id="circle4186"
         style="fill:#ffffff;stroke:none"
         d="m 360.8963,329.00659 a 2.5,2.5 0 0 1 -2.5,2.5 2.5,2.5 0 0 1 -2.5,-2.5 2.5,2.5 0 0 1 2.5,-2.5 2.5,2.5 0 0 1 2.5,2.5 z" />
      <path
         id="circle4188"
         style="fill:none"
         d="m 360.8963,329.00659 a 2.5,2.5 0 0 1 -2.5,2.5 2.5,2.5 0 0 1 -2.5,-2.5 2.5,2.5 0 0 1 2.5,-2.5 2.5,2.5 0 0 1 2.5,2.5 z" />
      <path
         id="circle4190"
         style="fill:#ffffff;stroke:none"
         d="m 384.86151,482.12729 a 2.5,2.5 0 0 1 -2.5,2.5 2.5,2.5 0 0 1 -2.5,-2.5 2.5,2.5 0 0 1 2.5,-2.5 2.5,2.5 0 0 1 2.5,2.5 z" />
      <path
         id="circle4192"
         style="fill:none"
         d="m 384.86151,482.12729 a 2.5,2.5 0 0 1 -2.5,2.5 2.5,2.5 0 0 1 -2.5,-2.5 2.5,2.5 0 0 1 2.5,-2.5 2.5,2.5 0 0 1 2.5,2.5 z" />
      <path
         id="circle4194"
         style="fill:#ffffff;stroke:none"
         d="m 472.3801,350.36411 a 2.5,2.5 0 0 1 -2.5,2.5 2.5,2.5 0 0 1 -2.5,-2.5 2.5,2.5 0 0 1 2.5,-2.5 2.5,2.5 0 0 1 2.5,2.5 z" />
      <path
         id="circle4196"
         style="fill:none"
         d="m 472.3801,350.36411 a 2.5,2.5 0 0 1 -2.5,2.5 2.5,2.5 0 0 1 -2.5,-2.5 2.5,2.5 0 0 1 2.5,-2.5 2.5,2.5 0 0 1 2.5,2.5 z" />
      <path
         id="circle4198"
         style="fill:#ffffff;stroke:none"
         d="m 315.74301,389.18411 a 2.5,2.5 0 0 1 -2.5,2.5 2.5,2.5 0 0 1 -2.5,-2.5 2.5,2.5 0 0 1 2.5,-2.5 2.5,2.5 0 0 1 2.5,2.5 z" />
      <path
         id="circle4200"
         style="fill:none"
         d="m 315.74301,389.18411 a 2.5,2.5 0 0 1 -2.5,2.5 2.5,2.5 0 0 1 -2.5,-2.5 2.5,2.5 0 0 1 2.5,-2.5 2.5,2.5 0 0 1 2.5,2.5 z" />
      <path
         id="circle4202"
         style="fill:#ffffff;stroke:none"
         d="m 460.27869,467.88281 a 2.5,2.5 0 0 1 -2.5,2.5 2.5,2.5 0 0 1 -2.5,-2.5 2.5,2.5 0 0 1 2.5,-2.5 2.5,2.5 0 0 1 2.5,2.5 z" />
      <path
         id="circle4204"
         style="fill:none"
         d="m 460.27869,467.88281 a 2.5,2.5 0 0 1 -2.5,2.5 2.5,2.5 0 0 1 -2.5,-2.5 2.5,2.5 0 0 1 2.5,-2.5 2.5,2.5 0 0 1 2.5,2.5 z" />
      <path
         id="circle4206"
         style="fill:#ffffff;stroke:none"
         d="m 405.81561,309.2034 a 2.5,2.5 0 0 1 -2.5,2.5 2.5,2.5 0 0 1 -2.5,-2.5 2.5,2.5 0 0 1 2.5,-2.5 2.5,2.5 0 0 1 2.5,2.5 z" />
      <path
         id="circle4208"
         style="fill:none"
         d="m 405.81561,309.2034 a 2.5,2.5 0 0 1 -2.5,2.5 2.5,2.5 0 0 1 -2.5,-2.5 2.5,2.5 0 0 1 2.5,-2.5 2.5,2.5 0 0 1 2.5,2.5 z" />
      <path
         id="circle4210"
         style="fill:#ffffff;stroke:none"
         d="m 337.52121,465.9335 a 2.5,2.5 0 0 1 -2.5,2.5 2.5,2.5 0 0 1 -2.5,-2.5 2.5,2.5 0 0 1 2.5,-2.5 2.5,2.5 0 0 1 2.5,2.5 z" />
      <path
         id="circle4212"
         style="fill:none"
         d="m 337.52121,465.9335 a 2.5,2.5 0 0 1 -2.5,2.5 2.5,2.5 0 0 1 -2.5,-2.5 2.5,2.5 0 0 1 2.5,-2.5 2.5,2.5 0 0 1 2.5,2.5 z" />
      <path
         id="circle4214"
         style="fill:#ffffff;stroke:none"
         d="m 496.66269,395.1853 a 2.5,2.5 0 0 1 -2.5,2.5 2.5,2.5 0 0 1 -2.5,-2.5 2.5,2.5 0 0 1 2.5,-2.5 2.5,2.5 0 0 1 2.5,2.5 z" />
      <path
         id="circle4216"
         style="fill:none"
         d="m 496.66269,395.1853 a 2.5,2.5 0 0 1 -2.5,2.5 2.5,2.5 0 0 1 -2.5,-2.5 2.5,2.5 0 0 1 2.5,-2.5 2.5,2.5 0 0 1 2.5,2.5 z" />
      <path
         id="circle4218"
         style="fill:#ffffff;stroke:none"
         d="m 328.4957,338.8497 a 2.5,2.5 0 0 1 -2.5,2.5 2.5,2.5 0 0 1 -2.5,-2.5 2.5,2.5 0 0 1 2.5,-2.5 2.5,2.5 0 0 1 2.5,2.5 z" />
      <path
         id="circle4220"
         style="fill:none"
         d="m 328.4957,338.8497 a 2.5,2.5 0 0 1 -2.5,2.5 2.5,2.5 0 0 1 -2.5,-2.5 2.5,2.5 0 0 1 2.5,-2.5 2.5,2.5 0 0 1 2.5,2.5 z" />
      <path
         id="circle4222"
         style="fill:#ffffff;stroke:none"
         d="m 416.00131,496.77701 a 2.5,2.5 0 0 1 -2.5,2.5 2.5,2.5 0 0 1 -2.5,-2.5 2.5,2.5 0 0 1 2.5,-2.5 2.5,2.5 0 0 1 2.5,2.5 z" />
      <path
         id="circle4224"
         style="fill:none"
         d="m 416.00131,496.77701 a 2.5,2.5 0 0 1 -2.5,2.5 2.5,2.5 0 0 1 -2.5,-2.5 2.5,2.5 0 0 1 2.5,-2.5 2.5,2.5 0 0 1 2.5,2.5 z" />
      <path
         id="circle4226"
         style="fill:#ffffff;stroke:none"
         d="m 458.8866,318.1062 a 2.5,2.5 0 0 1 -2.5,2.5 2.5,2.5 0 0 1 -2.5,-2.5 2.5,2.5 0 0 1 2.5,-2.5 2.5,2.5 0 0 1 2.5,2.5 z" />
      <path
         id="circle4228"
         style="fill:none"
         d="m 458.8866,318.1062 a 2.5,2.5 0 0 1 -2.5,2.5 2.5,2.5 0 0 1 -2.5,-2.5 2.5,2.5 0 0 1 2.5,-2.5 2.5,2.5 0 0 1 2.5,2.5 z" />
      <path
         id="circle4230"
         style="fill:#ffffff;stroke:none"
         d="m 303.9324,422.67831 a 2.5,2.5 0 0 1 -2.5,2.5 2.5,2.5 0 0 1 -2.5,-2.5 2.5,2.5 0 0 1 2.5,-2.5 2.5,2.5 0 0 1 2.5,2.5 z" />
      <path
         id="circle4232"
         style="fill:none"
         d="m 303.9324,422.67831 a 2.5,2.5 0 0 1 -2.5,2.5 2.5,2.5 0 0 1 -2.5,-2.5 2.5,2.5 0 0 1 2.5,-2.5 2.5,2.5 0 0 1 2.5,2.5 z" />
      <path
         id="circle4234"
         style="fill:#ffffff;stroke:none"
         d="m 491.9924,450.702 a 2.5,2.5 0 0 1 -2.5,2.5 2.5,2.5 0 0 1 -2.5,-2.5 2.5,2.5 0 0 1 2.5,-2.5 2.5,2.5 0 0 1 2.5,2.5 z" />
      <path
         id="circle4236"
         style="fill:none"
         d="m 491.9924,450.702 a 2.5,2.5 0 0 1 -2.5,2.5 2.5,2.5 0 0 1 -2.5,-2.5 2.5,2.5 0 0 1 2.5,-2.5 2.5,2.5 0 0 1 2.5,2.5 z" />
      <path
         id="circle4238"
         style="fill:#ffffff;stroke:none"
         d="m 370.23431,300.53091 a 2.5,2.5 0 0 1 -2.5,2.5 2.5,2.5 0 0 1 -2.5,-2.5 2.5,2.5 0 0 1 2.5,-2.5 2.5,2.5 0 0 1 2.5,2.5 z" />
      <path
         id="circle4240"
         style="fill:none"
         d="m 370.23431,300.53091 a 2.5,2.5 0 0 1 -2.5,2.5 2.5,2.5 0 0 1 -2.5,-2.5 2.5,2.5 0 0 1 2.5,-2.5 2.5,2.5 0 0 1 2.5,2.5 z" />
      <path
         id="circle4242"
         style="fill:#ffffff;stroke:none"
         d="m 358.3923,496.70139 a 2.5,2.5 0 0 1 -2.5,2.5 2.5,2.5 0 0 1 -2.5,-2.5 2.5,2.5 0 0 1 2.5,-2.5 2.5,2.5 0 0 1 2.5,2.5 z" />
      <path
         id="circle4244"
         style="fill:none"
         d="m 358.3923,496.70139 a 2.5,2.5 0 0 1 -2.5,2.5 2.5,2.5 0 0 1 -2.5,-2.5 2.5,2.5 0 0 1 2.5,-2.5 2.5,2.5 0 0 1 2.5,2.5 z" />
      <path
         id="circle4246"
         style="fill:#ffffff;stroke:none"
         d="m 501.9241,357.8237 a 2.5,2.5 0 0 1 -2.5,2.5 2.5,2.5 0 0 1 -2.5,-2.5 2.5,2.5 0 0 1 2.5,-2.5 2.5,2.5 0 0 1 2.5,2.5 z" />
      <path
         id="circle4248"
         style="fill:none"
         d="m 501.9241,357.8237 a 2.5,2.5 0 0 1 -2.5,2.5 2.5,2.5 0 0 1 -2.5,-2.5 2.5,2.5 0 0 1 2.5,-2.5 2.5,2.5 0 0 1 2.5,2.5 z" />
      <path
         id="circle4250"
         style="fill:#ffffff;stroke:none"
         d="m 299.08121,363.36969 a 2.5,2.5 0 0 1 -2.5,2.5 2.5,2.5 0 0 1 -2.5,-2.5 2.5,2.5 0 0 1 2.5,-2.5 2.5,2.5 0 0 1 2.5,2.5 z" />
      <path
         id="circle4252"
         style="fill:none"
         d="m 299.08121,363.36969 a 2.5,2.5 0 0 1 -2.5,2.5 2.5,2.5 0 0 1 -2.5,-2.5 2.5,2.5 0 0 1 2.5,-2.5 2.5,2.5 0 0 1 2.5,2.5 z" />
      <path
         id="circle4254"
         style="fill:#ffffff;stroke:none"
         d="m 454.8158,498.38391 a 2.5,2.5 0 0 1 -2.5,2.5 2.5,2.5 0 0 1 -2.5,-2.5 2.5,2.5 0 0 1 2.5,-2.5 2.5,2.5 0 0 1 2.5,2.5 z" />
      <path
         id="circle4256"
         style="fill:none"
         d="m 454.8158,498.38391 a 2.5,2.5 0 0 1 -2.5,2.5 2.5,2.5 0 0 1 -2.5,-2.5 2.5,2.5 0 0 1 2.5,-2.5 2.5,2.5 0 0 1 2.5,2.5 z" />
      <path
         id="circle4258"
         style="fill:#ffffff;stroke:none"
         d="m 430.8074,290.45551 a 2.5,2.5 0 0 1 -2.5,2.5 2.5,2.5 0 0 1 -2.5,-2.5 2.5,2.5 0 0 1 2.5,-2.5 2.5,2.5 0 0 1 2.5,2.5 z" />
      <path
         id="circle4260"
         style="fill:none"
         d="m 430.8074,290.45551 a 2.5,2.5 0 0 1 -2.5,2.5 2.5,2.5 0 0 1 -2.5,-2.5 2.5,2.5 0 0 1 2.5,-2.5 2.5,2.5 0 0 1 2.5,2.5 z" />
      <path
         id="circle4262"
         style="fill:#ffffff;stroke:none"
         d="m 306.1911,462.58401 a 2.5,2.5 0 0 1 -2.5,2.5 2.5,2.5 0 0 1 -2.5,-2.5 2.5,2.5 0 0 1 2.5,-2.5 2.5,2.5 0 0 1 2.5,2.5 z" />
      <path
         id="circle4264"
         style="fill:none"
         d="m 306.1911,462.58401 a 2.5,2.5 0 0 1 -2.5,2.5 2.5,2.5 0 0 1 -2.5,-2.5 2.5,2.5 0 0 1 2.5,-2.5 2.5,2.5 0 0 1 2.5,2.5 z" />
      <path
         id="circle4266"
         style="fill:#ffffff;stroke:none"
         d="m 517.48138,419.1875 a 2.5,2.5 0 0 1 -2.5,2.5 2.5,2.5 0 0 1 -2.5,-2.5 2.5,2.5 0 0 1 2.5,-2.5 2.5,2.5 0 0 1 2.5,2.5 z" />
      <path
         id="circle4268"
         style="fill:none"
         d="m 517.48138,419.1875 a 2.5,2.5 0 0 1 -2.5,2.5 2.5,2.5 0 0 1 -2.5,-2.5 2.5,2.5 0 0 1 2.5,-2.5 2.5,2.5 0 0 1 2.5,2.5 z" />
      <path
         id="circle4270"
         style="fill:#ffffff;stroke:none"
         d="m 329.6243,306.82999 a 2.5,2.5 0 0 1 -2.5,2.5 2.5,2.5 0 0 1 -2.5,-2.5 2.5,2.5 0 0 1 2.5,-2.5 2.5,2.5 0 0 1 2.5,2.5 z" />
      <path
         id="circle4272"
         style="fill:none"
         d="m 329.6243,306.82999 a 2.5,2.5 0 0 1 -2.5,2.5 2.5,2.5 0 0 1 -2.5,-2.5 2.5,2.5 0 0 1 2.5,-2.5 2.5,2.5 0 0 1 2.5,2.5 z" />
      <path
         id="circle4274"
         style="fill:#ffffff;stroke:none"
         d="m 393.17059,519.63678 a 2.5,2.5 0 0 1 -2.5,2.5 2.5,2.5 0 0 1 -2.5,-2.5 2.5,2.5 0 0 1 2.5,-2.5 2.5,2.5 0 0 1 2.5,2.5 z" />
      <path
         id="circle4276"
         style="fill:none"
         d="m 393.17059,519.63678 a 2.5,2.5 0 0 1 -2.5,2.5 2.5,2.5 0 0 1 -2.5,-2.5 2.5,2.5 0 0 1 2.5,-2.5 2.5,2.5 0 0 1 2.5,2.5 z" />
      <path
         id="circle4278"
         style="fill:#ffffff;stroke:none"
         d="m 491.4433,316.91299 a 2.5,2.5 0 0 1 -2.5,2.5 2.5,2.5 0 0 1 -2.5,-2.5 2.5,2.5 0 0 1 2.5,-2.5 2.5,2.5 0 0 1 2.5,2.5 z" />
      <path
         id="circle4280"
         style="fill:none"
         d="m 491.4433,316.91299 a 2.5,2.5 0 0 1 -2.5,2.5 2.5,2.5 0 0 1 -2.5,-2.5 2.5,2.5 0 0 1 2.5,-2.5 2.5,2.5 0 0 1 2.5,2.5 z" />
      <path
         id="circle4282"
         style="fill:#ffffff;stroke:none"
         d="m 279.07721,401.19769 a 2.5,2.5 0 0 1 -2.5,2.5 2.5,2.5 0 0 1 -2.5,-2.5 2.5,2.5 0 0 1 2.5,-2.5 2.5,2.5 0 0 1 2.5,2.5 z" />
      <path
         id="circle4284"
         style="fill:none"
         d="m 279.07721,401.19769 a 2.5,2.5 0 0 1 -2.5,2.5 2.5,2.5 0 0 1 -2.5,-2.5 2.5,2.5 0 0 1 2.5,-2.5 2.5,2.5 0 0 1 2.5,2.5 z" />
      <path
         id="circle4286"
         style="fill:#ffffff;stroke:none"
         d="m 495.59451,483.63101 a 2.5,2.5 0 0 1 -2.5,2.5 2.5,2.5 0 0 1 -2.5,-2.5 2.5,2.5 0 0 1 2.5,-2.5 2.5,2.5 0 0 1 2.5,2.5 z" />
      <path
         id="circle4288"
         style="fill:none"
         d="m 495.59451,483.63101 a 2.5,2.5 0 0 1 -2.5,2.5 2.5,2.5 0 0 1 -2.5,-2.5 2.5,2.5 0 0 1 2.5,-2.5 2.5,2.5 0 0 1 2.5,2.5 z" />
      <path
         id="circle4290"
         style="fill:#ffffff;stroke:none"
         d="m 390.18491,273.742 a 2.5,2.5 0 0 1 -2.5,2.5 2.5,2.5 0 0 1 -2.5,-2.5 2.5,2.5 0 0 1 2.5,-2.5 2.5,2.5 0 0 1 2.5,2.5 z" />
      <path
         id="circle4292"
         style="fill:none"
         d="m 390.18491,273.742 a 2.5,2.5 0 0 1 -2.5,2.5 2.5,2.5 0 0 1 -2.5,-2.5 2.5,2.5 0 0 1 2.5,-2.5 2.5,2.5 0 0 1 2.5,2.5 z" />
      <path
         id="circle4294"
         style="fill:#ffffff;stroke:none"
         d="m 325.2738,502.79459 a 2.5,2.5 0 0 1 -2.5,2.5 2.5,2.5 0 0 1 -2.5,-2.5 2.5,2.5 0 0 1 2.5,-2.5 2.5,2.5 0 0 1 2.5,2.5 z" />
      <path
         id="circle4296"
         style="fill:none"
         d="m 325.2738,502.79459 a 2.5,2.5 0 0 1 -2.5,2.5 2.5,2.5 0 0 1 -2.5,-2.5 2.5,2.5 0 0 1 2.5,-2.5 2.5,2.5 0 0 1 2.5,2.5 z" />
      <path
         id="circle4298"
         style="fill:#ffffff;stroke:none"
         d="m 530.56677,376.0574 a 2.5,2.5 0 0 1 -2.5,2.5 2.5,2.5 0 0 1 -2.5,-2.5 2.5,2.5 0 0 1 2.5,-2.5 2.5,2.5 0 0 1 2.5,2.5 z" />
      <path
         id="circle4300"
         style="fill:none"
         d="m 530.56677,376.0574 a 2.5,2.5 0 0 1 -2.5,2.5 2.5,2.5 0 0 1 -2.5,-2.5 2.5,2.5 0 0 1 2.5,-2.5 2.5,2.5 0 0 1 2.5,2.5 z" />
      <path
         id="circle4302"
         style="fill:#ffffff;stroke:none"
         d="m 290.43741,330.2435 a 2.5,2.5 0 0 1 -2.5,2.5 2.5,2.5 0 0 1 -2.5,-2.5 2.5,2.5 0 0 1 2.5,-2.5 2.5,2.5 0 0 1 2.5,2.5 z" />
      <path
         id="circle4304"
         style="fill:none"
         d="m 290.43741,330.2435 a 2.5,2.5 0 0 1 -2.5,2.5 2.5,2.5 0 0 1 -2.5,-2.5 2.5,2.5 0 0 1 2.5,-2.5 2.5,2.5 0 0 1 2.5,2.5 z" />
      <path
         id="circle4306"
         style="fill:#ffffff;stroke:none"
         d="m 438.46829,528.78589 a 2.5,2.5 0 0 1 -2.5,2.5 2.5,2.5 0 0 1 -2.5,-2.5 2.5,2.5 0 0 1 2.5,-2.5 2.5,2.5 0 0 1 2.5,2.5 z" />
      <path
         id="circle4308"
         style="fill:none"
         d="m 438.46829,528.78589 a 2.5,2.5 0 0 1 -2.5,2.5 2.5,2.5 0 0 1 -2.5,-2.5 2.5,2.5 0 0 1 2.5,-2.5 2.5,2.5 0 0 1 2.5,2.5 z" />
      <path
         id="circle4310"
         style="fill:#ffffff;stroke:none"
         d="m 463.7439,279.2106 a 2.5,2.5 0 0 1 -2.5,2.5 2.5,2.5 0 0 1 -2.5,-2.5 2.5,2.5 0 0 1 2.5,-2.5 2.5,2.5 0 0 1 2.5,2.5 z" />
      <path
         id="circle4312"
         style="fill:none"
         d="m 463.7439,279.2106 a 2.5,2.5 0 0 1 -2.5,2.5 2.5,2.5 0 0 1 -2.5,-2.5 2.5,2.5 0 0 1 2.5,-2.5 2.5,2.5 0 0 1 2.5,2.5 z" />
      <path
         id="circle4314"
         style="fill:#ffffff;stroke:none"
         d="m 274.1424,448.2959 a 2.5,2.5 0 0 1 -2.5,2.5 2.5,2.5 0 0 1 -2.5,-2.5 2.5,2.5 0 0 1 2.5,-2.5 2.5,2.5 0 0 1 2.5,2.5 z" />
      <path
         id="circle4316"
         style="fill:none"
         d="m 274.1424,448.2959 a 2.5,2.5 0 0 1 -2.5,2.5 2.5,2.5 0 0 1 -2.5,-2.5 2.5,2.5 0 0 1 2.5,-2.5 2.5,2.5 0 0 1 2.5,2.5 z" />
      <path
         id="circle4318"
         style="fill:#ffffff;stroke:none"
         d="m 531.35937,451.73569 a 2.5,2.5 0 0 1 -2.5,2.5 2.5,2.5 0 0 1 -2.5,-2.5 2.5,2.5 0 0 1 2.5,-2.5 2.5,2.5 0 0 1 2.5,2.5 z" />
      <path
         id="circle4320"
         style="fill:none"
         d="m 531.35937,451.73569 a 2.5,2.5 0 0 1 -2.5,2.5 2.5,2.5 0 0 1 -2.5,-2.5 2.5,2.5 0 0 1 2.5,-2.5 2.5,2.5 0 0 1 2.5,2.5 z" />
      <path
         id="circle4322"
         style="fill:#ffffff;stroke:none"
         d="m 341.68521,273.2645 a 2.5,2.5 0 0 1 -2.5,2.5 2.5,2.5 0 0 1 -2.5,-2.5 2.5,2.5 0 0 1 2.5,-2.5 2.5,2.5 0 0 1 2.5,2.5 z" />
      <path
         id="circle4324"
         style="fill:none"
         d="m 341.68521,273.2645 a 2.5,2.5 0 0 1 -2.5,2.5 2.5,2.5 0 0 1 -2.5,-2.5 2.5,2.5 0 0 1 2.5,-2.5 2.5,2.5 0 0 1 2.5,2.5 z" />
      <path
         id="circle4326"
         style="fill:#ffffff;stroke:none"
         d="m 361.2323,536.1698 a 2.5,2.5 0 0 1 -2.5,2.5 2.5,2.5 0 0 1 -2.5,-2.5 2.5,2.5 0 0 1 2.5,-2.5 2.5,2.5 0 0 1 2.5,2.5 z" />
      <path
         id="circle4328"
         style="fill:none"
         d="m 361.2323,536.1698 a 2.5,2.5 0 0 1 -2.5,2.5 2.5,2.5 0 0 1 -2.5,-2.5 2.5,2.5 0 0 1 2.5,-2.5 2.5,2.5 0 0 1 2.5,2.5 z" />
      <path
         id="circle4330"
         style="fill:#ffffff;stroke:none"
         d="m 526.38379,326.59149 a 2.5,2.5 0 0 1 -2.5,2.5 2.5,2.5 0 0 1 -2.5,-2.5 2.5,2.5 0 0 1 2.5,-2.5 2.5,2.5 0 0 1 2.5,2.5 z" />
      <path
         id="circle4332"
         style="fill:none"
         d="m 526.38379,326.59149 a 2.5,2.5 0 0 1 -2.5,2.5 2.5,2.5 0 0 1 -2.5,-2.5 2.5,2.5 0 0 1 2.5,-2.5 2.5,2.5 0 0 1 2.5,2.5 z" />
      <path
         id="circle4334"
         style="fill:#ffffff;stroke:none"
         d="m 259.88849,370.0899 a 2.5,2.5 0 0 1 -2.5,2.5 2.5,2.5 0 0 1 -2.5,-2.5 2.5,2.5 0 0 1 2.5,-2.5 2.5,2.5 0 0 1 2.5,2.5 z" />
      <path
         id="circle4336"
         style="fill:none"
         d="m 259.88849,370.0899 a 2.5,2.5 0 0 1 -2.5,2.5 2.5,2.5 0 0 1 -2.5,-2.5 2.5,2.5 0 0 1 2.5,-2.5 2.5,2.5 0 0 1 2.5,2.5 z" />
      <path
         id="circle4338"
         style="fill:#ffffff;stroke:none"
         d="m 488.45581,519.77802 a 2.5,2.5 0 0 1 -2.5,2.5 2.5,2.5 0 0 1 -2.5,-2.5 2.5,2.5 0 0 1 2.5,-2.5 2.5,2.5 0 0 1 2.5,2.5 z" />
      <path
         id="circle4340"
         style="fill:none"
         d="m 488.45581,519.77802 a 2.5,2.5 0 0 1 -2.5,2.5 2.5,2.5 0 0 1 -2.5,-2.5 2.5,2.5 0 0 1 2.5,-2.5 2.5,2.5 0 0 1 2.5,2.5 z" />
      <path
         id="circle4342"
         style="fill:#ffffff;stroke:none"
         d="m 420.21869,251.91341 a 2.5,2.5 0 0 1 -2.5,2.5 2.5,2.5 0 0 1 -2.5,-2.5 2.5,2.5 0 0 1 2.5,-2.5 2.5,2.5 0 0 1 2.5,2.5 z" />
      <path
         id="circle4344"
         style="fill:none"
         d="m 420.21869,251.91341 a 2.5,2.5 0 0 1 -2.5,2.5 2.5,2.5 0 0 1 -2.5,-2.5 2.5,2.5 0 0 1 2.5,-2.5 2.5,2.5 0 0 1 2.5,2.5 z" />
      <path
         id="circle4346"
         style="fill:#ffffff;stroke:none"
         d="m 288.10031,498.33911 a 2.5,2.5 0 0 1 -2.5,2.5 2.5,2.5 0 0 1 -2.5,-2.5 2.5,2.5 0 0 1 2.5,-2.5 2.5,2.5 0 0 1 2.5,2.5 z" />
      <path
         id="circle4348"
         style="fill:none"
         d="m 288.10031,498.33911 a 2.5,2.5 0 0 1 -2.5,2.5 2.5,2.5 0 0 1 -2.5,-2.5 2.5,2.5 0 0 1 2.5,-2.5 2.5,2.5 0 0 1 2.5,2.5 z" />
      <path
         id="circle4350"
         style="fill:#ffffff;stroke:none"
         d="m 554.99548,404.814 a 2.5,2.5 0 0 1 -2.5,2.5 2.5,2.5 0 0 1 -2.5,-2.5 2.5,2.5 0 0 1 2.5,-2.5 2.5,2.5 0 0 1 2.5,2.5 z" />
      <path
         id="circle4352"
         style="fill:none"
         d="m 554.99548,404.814 a 2.5,2.5 0 0 1 -2.5,2.5 2.5,2.5 0 0 1 -2.5,-2.5 2.5,2.5 0 0 1 2.5,-2.5 2.5,2.5 0 0 1 2.5,2.5 z" />
      <path
         id="circle4354"
         style="fill:#ffffff;stroke:none"
         d="m 292.08331,292.2399 a 2.5,2.5 0 0 1 -2.5,2.5 2.5,2.5 0 0 1 -2.5,-2.5 2.5,2.5 0 0 1 2.5,-2.5 2.5,2.5 0 0 1 2.5,2.5 z" />
      <path
         id="circle4356"
         style="fill:none"
         d="m 292.08331,292.2399 a 2.5,2.5 0 0 1 -2.5,2.5 2.5,2.5 0 0 1 -2.5,-2.5 2.5,2.5 0 0 1 2.5,-2.5 2.5,2.5 0 0 1 2.5,2.5 z" />
      <path
         id="circle4358"
         style="fill:#ffffff;stroke:none"
         d="m 411.22681,555.75568 a 2.5,2.5 0 0 1 -2.5,2.5 2.5,2.5 0 0 1 -2.5,-2.5 2.5,2.5 0 0 1 2.5,-2.5 2.5,2.5 0 0 1 2.5,2.5 z" />
      <path
         id="circle4360"
         style="fill:none"
         d="m 411.22681,555.75568 a 2.5,2.5 0 0 1 -2.5,2.5 2.5,2.5 0 0 1 -2.5,-2.5 2.5,2.5 0 0 1 2.5,-2.5 2.5,2.5 0 0 1 2.5,2.5 z" />
      <path
         id="circle4362"
         style="fill:#ffffff;stroke:none"
         d="m 502.36639,277.9324 a 2.5,2.5 0 0 1 -2.5,2.5 2.5,2.5 0 0 1 -2.5,-2.5 2.5,2.5 0 0 1 2.5,-2.5 2.5,2.5 0 0 1 2.5,2.5 z" />
      <path
         id="circle4364"
         style="fill:none"
         d="m 502.36639,277.9324 a 2.5,2.5 0 0 1 -2.5,2.5 2.5,2.5 0 0 1 -2.5,-2.5 2.5,2.5 0 0 1 2.5,-2.5 2.5,2.5 0 0 1 2.5,2.5 z" />
      <path
         id="circle4366"
         style="fill:#ffffff;stroke:none"
         d="m 244.7101,422.79919 a 2.5,2.5 0 0 1 -2.5,2.5 2.5,2.5 0 0 1 -2.5,-2.5 2.5,2.5 0 0 1 2.5,-2.5 2.5,2.5 0 0 1 2.5,2.5 z" />
      <path
         id="circle4368"
         style="fill:none"
         d="m 244.7101,422.79919 a 2.5,2.5 0 0 1 -2.5,2.5 2.5,2.5 0 0 1 -2.5,-2.5 2.5,2.5 0 0 1 2.5,-2.5 2.5,2.5 0 0 1 2.5,2.5 z" />
      <path
         id="circle4370"
         style="fill:#ffffff;stroke:none"
         d="m 535.66351,490.7442 a 2.5,2.5 0 0 1 -2.5,2.5 2.5,2.5 0 0 1 -2.5,-2.5 2.5,2.5 0 0 1 2.5,-2.5 2.5,2.5 0 0 1 2.5,2.5 z" />
      <path
         id="circle4372"
         style="fill:none"
         d="m 535.66351,490.7442 a 2.5,2.5 0 0 1 -2.5,2.5 2.5,2.5 0 0 1 -2.5,-2.5 2.5,2.5 0 0 1 2.5,-2.5 2.5,2.5 0 0 1 2.5,2.5 z" />
      <path
         id="circle4374"
         style="fill:#ffffff;stroke:none"
         d="m 365.20969,241.4696 a 2.5,2.5 0 0 1 -2.5,2.5 2.5,2.5 0 0 1 -2.5,-2.5 2.5,2.5 0 0 1 2.5,-2.5 2.5,2.5 0 0 1 2.5,2.5 z" />
      <path
         id="circle4376"
         style="fill:none"
         d="m 365.20969,241.4696 a 2.5,2.5 0 0 1 -2.5,2.5 2.5,2.5 0 0 1 -2.5,-2.5 2.5,2.5 0 0 1 2.5,-2.5 2.5,2.5 0 0 1 2.5,2.5 z" />
      <path
         id="circle4378"
         style="fill:#ffffff;stroke:none"
         d="m 322.06812,543.57739 a 2.5,2.5 0 0 1 -2.5,2.5 2.5,2.5 0 0 1 -2.5,-2.5 2.5,2.5 0 0 1 2.5,-2.5 2.5,2.5 0 0 1 2.5,2.5 z" />
      <path
         id="circle4380"
         style="fill:none"
         d="m 322.06812,543.57739 a 2.5,2.5 0 0 1 -2.5,2.5 2.5,2.5 0 0 1 -2.5,-2.5 2.5,2.5 0 0 1 2.5,-2.5 2.5,2.5 0 0 1 2.5,2.5 z" />
      <path
         id="circle4382"
         style="fill:#ffffff;stroke:none"
         d="m 560.4198,347.92059 a 2.5,2.5 0 0 1 -2.5,2.5 2.5,2.5 0 0 1 -2.5,-2.5 2.5,2.5 0 0 1 2.5,-2.5 2.5,2.5 0 0 1 2.5,2.5 z" />
      <path
         id="circle4384"
         style="fill:none"
         d="m 560.4198,347.92059 a 2.5,2.5 0 0 1 -2.5,2.5 2.5,2.5 0 0 1 -2.5,-2.5 2.5,2.5 0 0 1 2.5,-2.5 2.5,2.5 0 0 1 2.5,2.5 z" />
      <path
         id="circle4386"
         style="fill:#ffffff;stroke:none"
         d="m 249.315,331.0192 a 2.5,2.5 0 0 1 -2.5,2.5 2.5,2.5 0 0 1 -2.5,-2.5 2.5,2.5 0 0 1 2.5,-2.5 2.5,2.5 0 0 1 2.5,2.5 z" />
      <path
         id="circle4388"
         style="fill:none"
         d="m 249.315,331.0192 a 2.5,2.5 0 0 1 -2.5,2.5 2.5,2.5 0 0 1 -2.5,-2.5 2.5,2.5 0 0 1 2.5,-2.5 2.5,2.5 0 0 1 2.5,2.5 z" />
      <path
         id="circle4390"
         style="fill:#ffffff;stroke:none"
         d="m 469.53909,555.91248 a 2.5,2.5 0 0 1 -2.5,2.5 2.5,2.5 0 0 1 -2.5,-2.5 2.5,2.5 0 0 1 2.5,-2.5 2.5,2.5 0 0 1 2.5,2.5 z" />
      <path
         id="circle4392"
         style="fill:none"
         d="m 469.53909,555.91248 a 2.5,2.5 0 0 1 -2.5,2.5 2.5,2.5 0 0 1 -2.5,-2.5 2.5,2.5 0 0 1 2.5,-2.5 2.5,2.5 0 0 1 2.5,2.5 z" />
      <path
         id="circle4394"
         style="fill:#ffffff;stroke:none"
         d="m 458.95511,238.13409 a 2.5,2.5 0 0 1 -2.5,2.5 2.5,2.5 0 0 1 -2.5,-2.5 2.5,2.5 0 0 1 2.5,-2.5 2.5,2.5 0 0 1 2.5,2.5 z" />
      <path
         id="circle4396"
         style="fill:none"
         d="m 458.95511,238.13409 a 2.5,2.5 0 0 1 -2.5,2.5 2.5,2.5 0 0 1 -2.5,-2.5 2.5,2.5 0 0 1 2.5,-2.5 2.5,2.5 0 0 1 2.5,2.5 z" />
      <path
         id="circle4398"
         style="fill:#ffffff;stroke:none"
         d="m 250.0303,482.04541 a 2.5,2.5 0 0 1 -2.5,2.5 2.5,2.5 0 0 1 -2.5,-2.5 2.5,2.5 0 0 1 2.5,-2.5 2.5,2.5 0 0 1 2.5,2.5 z" />
      <path
         id="circle4400"
         style="fill:none"
         d="m 250.0303,482.04541 a 2.5,2.5 0 0 1 -2.5,2.5 2.5,2.5 0 0 1 -2.5,-2.5 2.5,2.5 0 0 1 2.5,-2.5 2.5,2.5 0 0 1 2.5,2.5 z" />
      <path
         id="circle4402"
         style="fill:#ffffff;stroke:none"
         d="m 572.005,442.93109 a 2.5,2.5 0 0 1 -2.5,2.5 2.5,2.5 0 0 1 -2.5,-2.5 2.5,2.5 0 0 1 2.5,-2.5 2.5,2.5 0 0 1 2.5,2.5 z" />
      <path
         id="circle4404"
         style="fill:none"
         d="m 572.005,442.93109 a 2.5,2.5 0 0 1 -2.5,2.5 2.5,2.5 0 0 1 -2.5,-2.5 2.5,2.5 0 0 1 2.5,-2.5 2.5,2.5 0 0 1 2.5,2.5 z" />
      <path
         id="circle4406"
         style="fill:#ffffff;stroke:none"
         d="m 305.56699,252.4146 a 2.5,2.5 0 0 1 -2.5,2.5 2.5,2.5 0 0 1 -2.5,-2.5 2.5,2.5 0 0 1 2.5,-2.5 2.5,2.5 0 0 1 2.5,2.5 z" />
      <path
         id="circle4408"
         style="fill:none"
         d="m 305.56699,252.4146 a 2.5,2.5 0 0 1 -2.5,2.5 2.5,2.5 0 0 1 -2.5,-2.5 2.5,2.5 0 0 1 2.5,-2.5 2.5,2.5 0 0 1 2.5,2.5 z" />
      <path
         id="circle4410"
         style="fill:#ffffff;stroke:none"
         d="m 374.0134,575.99518 a 2.5,2.5 0 0 1 -2.5,2.5 2.5,2.5 0 0 1 -2.5,-2.5 2.5,2.5 0 0 1 2.5,-2.5 2.5,2.5 0 0 1 2.5,2.5 z" />
      <path
         id="circle4412"
         style="fill:none"
         d="m 374.0134,575.99518 a 2.5,2.5 0 0 1 -2.5,2.5 2.5,2.5 0 0 1 -2.5,-2.5 2.5,2.5 0 0 1 2.5,-2.5 2.5,2.5 0 0 1 2.5,2.5 z" />
      <path
         id="circle4414"
         style="fill:#ffffff;stroke:none"
         d="m 543.73041,288.40259 a 2.5,2.5 0 0 1 -2.5,2.5 2.5,2.5 0 0 1 -2.5,-2.5 2.5,2.5 0 0 1 2.5,-2.5 2.5,2.5 0 0 1 2.5,2.5 z" />
      <path
         id="circle4416"
         style="fill:none"
         d="m 543.73041,288.40259 a 2.5,2.5 0 0 1 -2.5,2.5 2.5,2.5 0 0 1 -2.5,-2.5 2.5,2.5 0 0 1 2.5,-2.5 2.5,2.5 0 0 1 2.5,2.5 z" />
      <path
         id="circle4418"
         style="fill:#ffffff;stroke:none"
         d="m 221.2697,386.74631 a 2.5,2.5 0 0 1 -2.5,2.5 2.5,2.5 0 0 1 -2.5,-2.5 2.5,2.5 0 0 1 2.5,-2.5 2.5,2.5 0 0 1 2.5,2.5 z" />
      <path
         id="circle4420"
         style="fill:none"
         d="m 221.2697,386.74631 a 2.5,2.5 0 0 1 -2.5,2.5 2.5,2.5 0 0 1 -2.5,-2.5 2.5,2.5 0 0 1 2.5,-2.5 2.5,2.5 0 0 1 2.5,2.5 z" />
      <path
         id="circle4422"
         style="fill:#ffffff;stroke:none"
         d="m 528.36047,533.4361 a 2.5,2.5 0 0 1 -2.5,2.5 2.5,2.5 0 0 1 -2.5,-2.5 2.5,2.5 0 0 1 2.5,-2.5 2.5,2.5 0 0 1 2.5,2.5 z" />
      <path
         id="circle4424"
         style="fill:none"
         d="m 528.36047,533.4361 a 2.5,2.5 0 0 1 -2.5,2.5 2.5,2.5 0 0 1 -2.5,-2.5 2.5,2.5 0 0 1 2.5,-2.5 2.5,2.5 0 0 1 2.5,2.5 z" />
      <path
         id="circle4426"
         style="fill:#ffffff;stroke:none"
         d="m 399.7995,214.8768 a 2.5,2.5 0 0 1 -2.5,2.5 2.5,2.5 0 0 1 -2.5,-2.5 2.5,2.5 0 0 1 2.5,-2.5 2.5,2.5 0 0 1 2.5,2.5 z" />
      <path
         id="circle4428"
         style="fill:none"
         d="m 399.7995,214.8768 a 2.5,2.5 0 0 1 -2.5,2.5 2.5,2.5 0 0 1 -2.5,-2.5 2.5,2.5 0 0 1 2.5,-2.5 2.5,2.5 0 0 1 2.5,2.5 z" />
      <path
         id="circle4430"
         style="fill:#ffffff;stroke:none"
         d="m 278.30649,539.61218 a 2.5,2.5 0 0 1 -2.5,2.5 2.5,2.5 0 0 1 -2.5,-2.5 2.5,2.5 0 0 1 2.5,-2.5 2.5,2.5 0 0 1 2.5,2.5 z" />
      <path
         id="circle4432"
         style="fill:none"
         d="m 278.30649,539.61218 a 2.5,2.5 0 0 1 -2.5,2.5 2.5,2.5 0 0 1 -2.5,-2.5 2.5,2.5 0 0 1 2.5,-2.5 2.5,2.5 0 0 1 2.5,2.5 z" />
      <path
         id="circle4434"
         style="fill:#ffffff;stroke:none"
         d="m 590.08801,380.7662 a 2.5,2.5 0 0 1 -2.5,2.5 2.5,2.5 0 0 1 -2.5,-2.5 2.5,2.5 0 0 1 2.5,-2.5 2.5,2.5 0 0 1 2.5,2.5 z" />
      <path
         id="circle4436"
         style="fill:none"
         d="m 590.08801,380.7662 a 2.5,2.5 0 0 1 -2.5,2.5 2.5,2.5 0 0 1 -2.5,-2.5 2.5,2.5 0 0 1 2.5,-2.5 2.5,2.5 0 0 1 2.5,2.5 z" />
      <path
         id="circle4438"
         style="fill:#ffffff;stroke:none"
         d="m 249.82159,286.43079 a 2.5,2.5 0 0 1 -2.5,2.5 2.5,2.5 0 0 1 -2.5,-2.5 2.5,2.5 0 0 1 2.5,-2.5 2.5,2.5 0 0 1 2.5,2.5 z" />
      <path
         id="circle4440"
         style="fill:none"
         d="m 249.82159,286.43079 a 2.5,2.5 0 0 1 -2.5,2.5 2.5,2.5 0 0 1 -2.5,-2.5 2.5,2.5 0 0 1 2.5,-2.5 2.5,2.5 0 0 1 2.5,2.5 z" />
      <path
         id="circle4442"
         style="fill:#ffffff;stroke:none"
         d="m 438.6933,588.5578 a 2.5,2.5 0 0 1 -2.5,2.5 2.5,2.5 0 0 1 -2.5,-2.5 2.5,2.5 0 0 1 2.5,-2.5 2.5,2.5 0 0 1 2.5,2.5 z" />
      <path
         id="circle4444"
         style="fill:none"
         d="m 438.6933,588.5578 a 2.5,2.5 0 0 1 -2.5,2.5 2.5,2.5 0 0 1 -2.5,-2.5 2.5,2.5 0 0 1 2.5,-2.5 2.5,2.5 0 0 1 2.5,2.5 z" />
      <path
         id="circle4446"
         style="fill:#ffffff;stroke:none"
         d="m 504.07581,235.0528 a 2.5,2.5 0 0 1 -2.5,2.5 2.5,2.5 0 0 1 -2.5,-2.5 2.5,2.5 0 0 1 2.5,-2.5 2.5,2.5 0 0 1 2.5,2.5 z" />
      <path
         id="circle4448"
         style="fill:none"
         d="m 504.07581,235.0528 a 2.5,2.5 0 0 1 -2.5,2.5 2.5,2.5 0 0 1 -2.5,-2.5 2.5,2.5 0 0 1 2.5,-2.5 2.5,2.5 0 0 1 2.5,2.5 z" />
      <path
         id="circle4450"
         style="fill:#ffffff;stroke:none"
         d="m 214.5334,453.4874 a 2.5,2.5 0 0 1 -2.5,2.5 2.5,2.5 0 0 1 -2.5,-2.5 2.5,2.5 0 0 1 2.5,-2.5 2.5,2.5 0 0 1 2.5,2.5 z" />
      <path
         id="circle4452"
         style="fill:none"
         d="m 214.5334,453.4874 a 2.5,2.5 0 0 1 -2.5,2.5 2.5,2.5 0 0 1 -2.5,-2.5 2.5,2.5 0 0 1 2.5,-2.5 2.5,2.5 0 0 1 2.5,2.5 z" />
      <path
         id="circle4454"
         style="fill:#ffffff;stroke:none"
         d="m 578.75513,488.31451 a 2.5,2.5 0 0 1 -2.5,2.5 2.5,2.5 0 0 1 -2.5,-2.5 2.5,2.5 0 0 1 2.5,-2.5 2.5,2.5 0 0 1 2.5,2.5 z" />
      <path
         id="circle4456"
         style="fill:none"
         d="m 578.75513,488.31451 a 2.5,2.5 0 0 1 -2.5,2.5 2.5,2.5 0 0 1 -2.5,-2.5 2.5,2.5 0 0 1 2.5,-2.5 2.5,2.5 0 0 1 2.5,2.5 z" />
      <path
         id="circle4458"
         style="fill:#ffffff;stroke:none"
         d="m 331.55179,214.23 a 2.5,2.5 0 0 1 -2.5,2.5 2.5,2.5 0 0 1 -2.5,-2.5 2.5,2.5 0 0 1 2.5,-2.5 2.5,2.5 0 0 1 2.5,2.5 z" />
      <path
         id="circle4460"
         style="fill:none"
         d="m 331.55179,214.23 a 2.5,2.5 0 0 1 -2.5,2.5 2.5,2.5 0 0 1 -2.5,-2.5 2.5,2.5 0 0 1 2.5,-2.5 2.5,2.5 0 0 1 2.5,2.5 z" />
      <path
         id="circle4462"
         style="fill:#ffffff;stroke:none"
         d="m 328.68039,586.4928 a 2.5,2.5 0 0 1 -2.5,2.5 2.5,2.5 0 0 1 -2.5,-2.5 2.5,2.5 0 0 1 2.5,-2.5 2.5,2.5 0 0 1 2.5,2.5 z" />
      <path
         id="circle4464"
         style="fill:none"
         d="m 328.68039,586.4928 a 2.5,2.5 0 0 1 -2.5,2.5 2.5,2.5 0 0 1 -2.5,-2.5 2.5,2.5 0 0 1 2.5,-2.5 2.5,2.5 0 0 1 2.5,2.5 z" />
      <path
         id="circle4466"
         style="fill:#ffffff;stroke:none"
         d="m 584.44598,311.59671 a 2.5,2.5 0 0 1 -2.5,2.5 2.5,2.5 0 0 1 -2.5,-2.5 2.5,2.5 0 0 1 2.5,-2.5 2.5,2.5 0 0 1 2.5,2.5 z" />
      <path
         id="circle4468"
         style="fill:none"
         d="m 584.44598,311.59671 a 2.5,2.5 0 0 1 -2.5,2.5 2.5,2.5 0 0 1 -2.5,-2.5 2.5,2.5 0 0 1 2.5,-2.5 2.5,2.5 0 0 1 2.5,2.5 z" />
      <path
         id="circle4470"
         style="fill:#ffffff;stroke:none"
         d="m 206.9857,341.77509 a 2.5,2.5 0 0 1 -2.5,2.5 2.5,2.5 0 0 1 -2.5,-2.5 2.5,2.5 0 0 1 2.5,-2.5 2.5,2.5 0 0 1 2.5,2.5 z" />
      <path
         id="circle4472"
         style="fill:none"
         d="m 206.9857,341.77509 a 2.5,2.5 0 0 1 -2.5,2.5 2.5,2.5 0 0 1 -2.5,-2.5 2.5,2.5 0 0 1 2.5,-2.5 2.5,2.5 0 0 1 2.5,2.5 z" />
      <path
         id="circle4474"
         style="fill:#ffffff;stroke:none"
         d="m 508.24289,576.4563 a 2.5,2.5 0 0 1 -2.5,2.5 2.5,2.5 0 0 1 -2.5,-2.5 2.5,2.5 0 0 1 2.5,-2.5 2.5,2.5 0 0 1 2.5,2.5 z" />
      <path
         id="circle4476"
         style="fill:none"
         d="m 508.24289,576.4563 a 2.5,2.5 0 0 1 -2.5,2.5 2.5,2.5 0 0 1 -2.5,-2.5 2.5,2.5 0 0 1 2.5,-2.5 2.5,2.5 0 0 1 2.5,2.5 z" />
      <path
         id="circle4478"
         style="fill:#ffffff;stroke:none"
         d="m 444.08621,196.7829 a 2.5,2.5 0 0 1 -2.5,2.5 2.5,2.5 0 0 1 -2.5,-2.5 2.5,2.5 0 0 1 2.5,-2.5 2.5,2.5 0 0 1 2.5,2.5 z" />
      <path
         id="circle4480"
         style="fill:none"
         d="m 444.08621,196.7829 a 2.5,2.5 0 0 1 -2.5,2.5 2.5,2.5 0 0 1 -2.5,-2.5 2.5,2.5 0 0 1 2.5,-2.5 2.5,2.5 0 0 1 2.5,2.5 z" />
      <path
         id="circle4482"
         style="fill:#ffffff;stroke:none"
         d="m 233.1797,522.7655 a 2.5,2.5 0 0 1 -2.5,2.5 2.5,2.5 0 0 1 -2.5,-2.5 2.5,2.5 0 0 1 2.5,-2.5 2.5,2.5 0 0 1 2.5,2.5 z" />
      <path
         id="circle4484"
         style="fill:none"
         d="m 233.1797,522.7655 a 2.5,2.5 0 0 1 -2.5,2.5 2.5,2.5 0 0 1 -2.5,-2.5 2.5,2.5 0 0 1 2.5,-2.5 2.5,2.5 0 0 1 2.5,2.5 z" />
      <path
         id="circle4486"
         style="fill:#ffffff;stroke:none"
         d="m 611.98218,424.04089 a 2.5,2.5 0 0 1 -2.5,2.5 2.5,2.5 0 0 1 -2.5,-2.5 2.5,2.5 0 0 1 2.5,-2.5 2.5,2.5 0 0 1 2.5,2.5 z" />
      <path
         id="circle4488"
         style="fill:none"
         d="m 611.98218,424.04089 a 2.5,2.5 0 0 1 -2.5,2.5 2.5,2.5 0 0 1 -2.5,-2.5 2.5,2.5 0 0 1 2.5,-2.5 2.5,2.5 0 0 1 2.5,2.5 z" />
      <path
         id="circle4490"
         style="fill:#ffffff;stroke:none"
         d="m 263.1459,239.4789 a 2.5,2.5 0 0 1 -2.5,2.5 2.5,2.5 0 0 1 -2.5,-2.5 2.5,2.5 0 0 1 2.5,-2.5 2.5,2.5 0 0 1 2.5,2.5 z" />
      <path
         id="circle4492"
         style="fill:none"
         d="m 263.1459,239.4789 a 2.5,2.5 0 0 1 -2.5,2.5 2.5,2.5 0 0 1 -2.5,-2.5 2.5,2.5 0 0 1 2.5,-2.5 2.5,2.5 0 0 1 2.5,2.5 z" />
      <path
         id="circle4494"
         style="fill:#ffffff;stroke:none"
         d="m 396.75851,614.2088 a 2.5,2.5 0 0 1 -2.5,2.5 2.5,2.5 0 0 1 -2.5,-2.5 2.5,2.5 0 0 1 2.5,-2.5 2.5,2.5 0 0 1 2.5,2.5 z" />
      <path
         id="circle4496"
         style="fill:none"
         d="m 396.75851,614.2088 a 2.5,2.5 0 0 1 -2.5,2.5 2.5,2.5 0 0 1 -2.5,-2.5 2.5,2.5 0 0 1 2.5,-2.5 2.5,2.5 0 0 1 2.5,2.5 z" />
      <path
         id="circle4498"
         style="fill:#ffffff;stroke:none"
         d="m 552.61713,244.69099 a 2.5,2.5 0 0 1 -2.5,2.5 2.5,2.5 0 0 1 -2.5,-2.5 2.5,2.5 0 0 1 2.5,-2.5 2.5,2.5 0 0 1 2.5,2.5 z" />
      <path
         id="circle4500"
         style="fill:none"
         d="m 552.61713,244.69099 a 2.5,2.5 0 0 1 -2.5,2.5 2.5,2.5 0 0 1 -2.5,-2.5 2.5,2.5 0 0 1 2.5,-2.5 2.5,2.5 0 0 1 2.5,2.5 z" />
      <path
         id="circle4502"
         style="fill:#ffffff;stroke:none"
         d="m 185.1879,413.22711 a 2.5,2.5 0 0 1 -2.5,2.5 2.5,2.5 0 0 1 -2.5,-2.5 2.5,2.5 0 0 1 2.5,-2.5 2.5,2.5 0 0 1 2.5,2.5 z" />
      <path
         id="circle4504"
         style="fill:none"
         d="m 185.1879,413.22711 a 2.5,2.5 0 0 1 -2.5,2.5 2.5,2.5 0 0 1 -2.5,-2.5 2.5,2.5 0 0 1 2.5,-2.5 2.5,2.5 0 0 1 2.5,2.5 z" />
      <path
         id="circle4506"
         style="fill:#ffffff;stroke:none"
         d="m 573.00952,538.11371 a 2.5,2.5 0 0 1 -2.5,2.5 2.5,2.5 0 0 1 -2.5,-2.5 2.5,2.5 0 0 1 2.5,-2.5 2.5,2.5 0 0 1 2.5,2.5 z" />
      <path
         id="circle4508"
         style="fill:none"
         d="m 573.00952,538.11371 a 2.5,2.5 0 0 1 -2.5,2.5 2.5,2.5 0 0 1 -2.5,-2.5 2.5,2.5 0 0 1 2.5,-2.5 2.5,2.5 0 0 1 2.5,2.5 z" />
      <path
         id="circle4510"
         style="fill:#ffffff;stroke:none"
         d="m 369.8071,181.28709 a 2.5,2.5 0 0 1 -2.5,2.5 2.5,2.5 0 0 1 -2.5,-2.5 2.5,2.5 0 0 1 2.5,-2.5 2.5,2.5 0 0 1 2.5,2.5 z" />
      <path
         id="circle4512"
         style="fill:none"
         d="m 369.8071,181.28709 a 2.5,2.5 0 0 1 -2.5,2.5 2.5,2.5 0 0 1 -2.5,-2.5 2.5,2.5 0 0 1 2.5,-2.5 2.5,2.5 0 0 1 2.5,2.5 z" />
      <path
         id="circle4514"
         style="fill:#ffffff;stroke:none"
         d="m 277.89209,584.7652 a 2.5,2.5 0 0 1 -2.5,2.5 2.5,2.5 0 0 1 -2.5,-2.5 2.5,2.5 0 0 1 2.5,-2.5 2.5,2.5 0 0 1 2.5,2.5 z" />
      <path
         id="circle4516"
         style="fill:none"
         d="m 277.89209,584.7652 a 2.5,2.5 0 0 1 -2.5,2.5 2.5,2.5 0 0 1 -2.5,-2.5 2.5,2.5 0 0 1 2.5,-2.5 2.5,2.5 0 0 1 2.5,2.5 z" />
      <path
         id="circle4518"
         style="fill:#ffffff;stroke:none"
         d="m 620.84821,347.4986 a 2.5,2.5 0 0 1 -2.5,2.5 2.5,2.5 0 0 1 -2.5,-2.5 2.5,2.5 0 0 1 2.5,-2.5 2.5,2.5 0 0 1 2.5,2.5 z" />
      <path
         id="circle4520"
         style="fill:none"
         d="m 620.84821,347.4986 a 2.5,2.5 0 0 1 -2.5,2.5 2.5,2.5 0 0 1 -2.5,-2.5 2.5,2.5 0 0 1 2.5,-2.5 2.5,2.5 0 0 1 2.5,2.5 z" />
      <path
         id="circle4522"
         style="fill:#ffffff;stroke:none"
         d="m 204.5435,290.3714 a 2.5,2.5 0 0 1 -2.5,2.5 2.5,2.5 0 0 1 -2.5,-2.5 2.5,2.5 0 0 1 2.5,-2.5 2.5,2.5 0 0 1 2.5,2.5 z" />
      <path
         id="circle4524"
         style="fill:none"
         d="m 204.5435,290.3714 a 2.5,2.5 0 0 1 -2.5,2.5 2.5,2.5 0 0 1 -2.5,-2.5 2.5,2.5 0 0 1 2.5,-2.5 2.5,2.5 0 0 1 2.5,2.5 z" />
      <path
         id="circle4526"
         style="fill:#ffffff;stroke:none"
         d="m 474.9642,616.17798 a 2.5,2.5 0 0 1 -2.5,2.5 2.5,2.5 0 0 1 -2.5,-2.5 2.5,2.5 0 0 1 2.5,-2.5 2.5,2.5 0 0 1 2.5,2.5 z" />
      <path
         id="circle4528"
         style="fill:none"
         d="m 474.9642,616.17798 a 2.5,2.5 0 0 1 -2.5,2.5 2.5,2.5 0 0 1 -2.5,-2.5 2.5,2.5 0 0 1 2.5,-2.5 2.5,2.5 0 0 1 2.5,2.5 z" />
      <path
         id="circle4530"
         style="fill:#ffffff;stroke:none"
         d="m 495.80981,190.09061 a 2.5,2.5 0 0 1 -2.5,2.5 2.5,2.5 0 0 1 -2.5,-2.5 2.5,2.5 0 0 1 2.5,-2.5 2.5,2.5 0 0 1 2.5,2.5 z" />
      <path
         id="circle4532"
         style="fill:none"
         d="m 495.80981,190.09061 a 2.5,2.5 0 0 1 -2.5,2.5 2.5,2.5 0 0 1 -2.5,-2.5 2.5,2.5 0 0 1 2.5,-2.5 2.5,2.5 0 0 1 2.5,2.5 z" />
      <path
         id="circle4534"
         style="fill:#ffffff;stroke:none"
         d="m 190.3466,492.4668 a 2.5,2.5 0 0 1 -2.5,2.5 2.5,2.5 0 0 1 -2.5,-2.5 2.5,2.5 0 0 1 2.5,-2.5 2.5,2.5 0 0 1 2.5,2.5 z" />
      <path
         id="circle4536"
         style="fill:none"
         d="m 190.3466,492.4668 a 2.5,2.5 0 0 1 -2.5,2.5 2.5,2.5 0 0 1 -2.5,-2.5 2.5,2.5 0 0 1 2.5,-2.5 2.5,2.5 0 0 1 2.5,2.5 z" />
      <path
         id="circle4538"
         style="fill:#ffffff;stroke:none"
         d="m 623.00989,475.70319 a 2.5,2.5 0 0 1 -2.5,2.5 2.5,2.5 0 0 1 -2.5,-2.5 2.5,2.5 0 0 1 2.5,-2.5 2.5,2.5 0 0 1 2.5,2.5 z" />
      <path
         id="circle4540"
         style="fill:none"
         d="m 623.00989,475.70319 a 2.5,2.5 0 0 1 -2.5,2.5 2.5,2.5 0 0 1 -2.5,-2.5 2.5,2.5 0 0 1 2.5,-2.5 2.5,2.5 0 0 1 2.5,2.5 z" />
      <path
         id="circle4542"
         style="fill:#ffffff;stroke:none"
         d="m 290.21481,193.72369 a 2.5,2.5 0 0 1 -2.5,2.5 2.5,2.5 0 0 1 -2.5,-2.5 2.5,2.5 0 0 1 2.5,-2.5 2.5,2.5 0 0 1 2.5,2.5 z" />
      <path
         id="circle4544"
         style="fill:none"
         d="m 290.21481,193.72369 a 2.5,2.5 0 0 1 -2.5,2.5 2.5,2.5 0 0 1 -2.5,-2.5 2.5,2.5 0 0 1 2.5,-2.5 2.5,2.5 0 0 1 2.5,2.5 z" />
      <path
         id="circle4546"
         style="fill:#ffffff;stroke:none"
         d="m 345.5231,629.60773 a 2.5,2.5 0 0 1 -2.5,2.5 2.5,2.5 0 0 1 -2.5,-2.5 2.5,2.5 0 0 1 2.5,-2.5 2.5,2.5 0 0 1 2.5,2.5 z" />
      <path
         id="circle4548"
         style="fill:none"
         d="m 345.5231,629.60773 a 2.5,2.5 0 0 1 -2.5,2.5 2.5,2.5 0 0 1 -2.5,-2.5 2.5,2.5 0 0 1 2.5,-2.5 2.5,2.5 0 0 1 2.5,2.5 z" />
      <path
         id="circle4550"
         style="fill:#ffffff;stroke:none"
         d="m 601.01959,268.2045 a 2.5,2.5 0 0 1 -2.5,2.5 2.5,2.5 0 0 1 -2.5,-2.5 2.5,2.5 0 0 1 2.5,-2.5 2.5,2.5 0 0 1 2.5,2.5 z" />
      <path
         id="circle4552"
         style="fill:none"
         d="m 601.01959,268.2045 a 2.5,2.5 0 0 1 -2.5,2.5 2.5,2.5 0 0 1 -2.5,-2.5 2.5,2.5 0 0 1 2.5,-2.5 2.5,2.5 0 0 1 2.5,2.5 z" />
      <path
         id="line4582"
         style="fill:none;stroke:#646464"
         d="m 509.83969,505.7164 2.0679,3.3623" />
      <path
         id="line4584"
         style="fill:none;stroke:#646464"
         d="m 653.49548,485.41501 -17.47296,19.57168" />
      <path
         id="line4594"
         style="fill:none;stroke:#646464"
         d="m 632.63538,446.10681 20.8601,39.3082" />
      <path
         id="line4596"
         style="fill:none;stroke:#646464"
         d="m 632.63538,446.10681 9.59045,-18.25311" />
      <path
         id="line4598"
         style="fill:none;stroke:#646464"
         d="m 598.86359,453.31561 33.77179,-7.2088" />
      <path
         id="line4600"
         style="fill:none;stroke:#646464"
         d="m 615.81592,393.66061 26.40991,34.19309" />
      <path
         id="line4602"
         style="fill:none;stroke:#646464"
         d="m 592.86591,462.65021 5.99768,-9.3346" />
      <path
         id="line4604"
         style="fill:none;stroke:#646464"
         d="m 604.5589,503.68259 31.46362,1.3041" />
      <path
         id="line4606"
         style="fill:none;stroke:#646464"
         d="M 604.5589,503.68259 592.86591,462.65021" />
      <path
         id="line4624"
         style="fill:none;stroke:#646464"
         d="M 523.44318,176.7813 505.9819,158.3812" />
      <path
         id="line4628"
         style="fill:none;stroke:#646464"
         d="m 582.26898,410.63309 33.54694,-16.97248" />
      <path
         id="line4630"
         style="fill:none;stroke:#646464"
         d="M 582.26898,410.63309 559.03802,376.73251" />
      <path
         id="line4632"
         style="fill:none;stroke:#646464"
         d="m 580.78021,415.0459 18.08338,38.26971" />
      <path
         id="line4634"
         style="fill:none;stroke:#646464"
         d="m 580.78021,415.0459 1.48877,-4.41281" />
      <path
         id="line4636"
         style="fill:none;stroke:#646464"
         d="m 619.328,379.25919 -3.51208,14.40142" />
      <path
         id="line4638"
         style="fill:none;stroke:#646464"
         d="m 588.15302,350.43399 -29.115,26.29852" />
      <path
         id="line4640"
         style="fill:none;stroke:#646464"
         d="m 588.15302,350.43399 31.17498,28.8252" />
      <path
         id="line4642"
         style="fill:none;stroke:#646464"
         d="m 588.09253,341.7702 0.0605,8.66379" />
      <path
         id="line4644"
         style="fill:none;stroke:#646464"
         d="M 613.17419,316.33899 588.09253,341.7702" />
      <path
         id="line4648"
         style="fill:none;stroke:#646464"
         d="M 650.99957,338.70801 613.17419,316.33899" />
      <path
         id="line4652"
         style="fill:none;stroke:#646464"
         d="M 647.36462,362.53369 619.328,379.25919" />
      <path
         id="line4654"
         style="fill:none;stroke:#646464"
         d="m 647.36462,362.53369 3.63495,-23.82568" />
      <path
         id="line4660"
         style="fill:none;stroke:#646464"
         d="m 631.34808,274.51669 -4.9627,-27.03119" />
      <path
         id="line4662"
         style="fill:none;stroke:#646464"
         d="m 611.45093,298.00479 1.72326,18.3342" />
      <path
         id="line4664"
         style="fill:none;stroke:#646464"
         d="m 611.45093,298.00479 19.89715,-23.4881" />
      <path
         id="line4666"
         style="fill:none;stroke:#646464"
         d="m 571.43188,282.7196 40.01905,15.28519" />
      <path
         id="line4668"
         style="fill:none;stroke:#646464"
         d="m 567.27863,270.93909 4.15325,11.78051" />
      <path
         id="line4670"
         style="fill:none;stroke:#646464"
         d="m 582.06958,240.49159 -9.06805,-19.9639" />
      <path
         id="line4672"
         style="fill:none;stroke:#646464"
         d="m 582.06958,240.49159 44.3158,6.99391" />
      <path
         id="line4674"
         style="fill:none;stroke:#646464"
         d="m 582.06958,240.49159 -14.79095,30.4475" />
      <path
         id="line4676"
         style="fill:none;stroke:#646464"
         d="m 515.65942,472.93381 -5.81973,32.78259" />
      <path
         id="line4678"
         style="fill:none;stroke:#646464"
         d="m 545.58978,430.7493 35.19043,-15.7034" />
      <path
         id="line4680"
         style="fill:none;stroke:#646464"
         d="m 545.58978,430.7493 -5.78418,-2.91361" />
      <path
         id="line4682"
         style="fill:none;stroke:#646464"
         d="m 553.76001,468.46661 39.1059,-5.8164" />
      <path
         id="line4684"
         style="fill:none;stroke:#646464"
         d="M 553.76001,468.46661 545.58978,430.7493" />
      <path
         id="line4686"
         style="fill:none;stroke:#646464"
         d="m 553.5379,468.75439 -37.87848,4.17942" />
      <path
         id="line4688"
         style="fill:none;stroke:#646464"
         d="m 553.5379,468.75439 0.22211,-0.28778" />
      <path
         id="line4690"
         style="fill:none;stroke:#646464"
         d="M 550.29388,515.64508 511.90759,509.0787" />
      <path
         id="line4692"
         style="fill:none;stroke:#646464"
         d="M 555.93121,511.20071 553.5379,468.75439" />
      <path
         id="line4694"
         style="fill:none;stroke:#646464"
         d="m 555.93121,511.20071 -5.63733,4.44437" />
      <path
         id="line4696"
         style="fill:none;stroke:#646464"
         d="m 592.11603,515.37549 12.44287,-11.6929" />
      <path
         id="line4698"
         style="fill:none;stroke:#646464"
         d="m 592.11603,515.37549 -36.18482,-4.17478" />
      <path
         id="line4702"
         style="fill:none;stroke:#646464"
         d="m 596.87769,558.76111 -4.76166,-43.38562" />
      <path
         id="line4706"
         style="fill:none;stroke:#646464"
         d="m 314.78671,647.30487 21.64658,16.2879" />
      <path
         id="line4714"
         style="fill:none;stroke:#646464"
         d="M 498.9119,547.04797 511.90759,509.0787" />
      <path
         id="line4716"
         style="fill:none;stroke:#646464"
         d="m 498.9119,547.04797 -2.90101,1.01276" />
      <path
         id="line4726"
         style="fill:none;stroke:#646464"
         d="m 296.30539,161.6265 -26.51199,2.6278" />
      <path
         id="line4730"
         style="fill:none;stroke:#646464"
         d="m 296.30539,161.6265 22.11792,22.1114" />
      <path
         id="line4732"
         style="fill:none;stroke:#646464"
         d="m 525.7793,262.50229 41.49933,8.4368" />
      <path
         id="line4734"
         style="fill:none;stroke:#646464"
         d="m 313.50339,616.29218 1.28332,31.01269" />
      <path
         id="line4736"
         style="fill:none;stroke:#646464"
         d="M 313.50339,616.29218 353.3576,600.72333" />
      <path
         id="line4740"
         style="fill:none;stroke:#646464"
         d="M 258.74411,207.4691 269.7934,164.2543" />
      <path
         id="line4742"
         style="fill:none;stroke:#646464"
         d="m 258.74411,207.4691 -19.8278,7.0863" />
      <path
         id="line4746"
         style="fill:none;stroke:#646464"
         d="m 390.37161,245.86259 20.77359,28.5823" />
      <path
         id="line4748"
         style="fill:none;stroke:#646464"
         d="m 391.01181,242.49049 -0.6402,3.3721" />
      <path
         id="line4750"
         style="fill:none;stroke:#646464"
         d="m 516.26343,300.09601 9.51587,-37.59372" />
      <path
         id="line4752"
         style="fill:none;stroke:#646464"
         d="m 516.26343,300.09601 -4.46094,2.20178" />
      <path
         id="line4754"
         style="fill:none;stroke:#646464"
         d="M 552.22742,316.43201 571.43188,282.7196" />
      <path
         id="line4756"
         style="fill:none;stroke:#646464"
         d="m 552.22742,316.43201 -35.96399,-16.336" />
      <path
         id="line4758"
         style="fill:none;stroke:#646464"
         d="m 552.73053,318.38019 35.362,23.39001" />
      <path
         id="line4760"
         style="fill:none;stroke:#646464"
         d="m 552.73053,318.38019 -0.50311,-1.94818" />
      <path
         id="line4762"
         style="fill:none;stroke:#646464"
         d="m 502.69171,335.18869 9.11078,-32.8909" />
      <path
         id="line4764"
         style="fill:none;stroke:#646464"
         d="m 523.55627,351.52899 -20.86456,-16.3403" />
      <path
         id="line4766"
         style="fill:none;stroke:#646464"
         d="m 532.42761,350.77881 20.30292,-32.39862" />
      <path
         id="line4768"
         style="fill:none;stroke:#646464"
         d="m 532.42761,350.77881 -8.87134,0.75018" />
      <path
         id="line4770"
         style="fill:none;stroke:#646464"
         d="m 556.67712,376.50739 2.3609,0.22512" />
      <path
         id="line4772"
         style="fill:none;stroke:#646464"
         d="M 556.67712,376.50739 532.42761,350.77881" />
      <path
         id="line4774"
         style="fill:none;stroke:#646464"
         d="m 529.11139,399.92441 10.69421,27.91128" />
      <path
         id="line4776"
         style="fill:none;stroke:#646464"
         d="m 529.11139,399.92441 27.56573,-23.41702" />
      <path
         id="line4780"
         style="fill:none;stroke:#646464"
         d="m 373.7739,638.98718 -37.34061,24.60559" />
      <path
         id="line4782"
         style="fill:none;stroke:#646464"
         d="m 373.7739,638.98718 19.81991,8.383" />
      <path
         id="line4784"
         style="fill:none;stroke:#646464"
         d="M 363.96841,606.36188 353.3576,600.72333" />
      <path
         id="line4786"
         style="fill:none;stroke:#646464"
         d="m 363.96841,606.36188 9.80549,32.6253" />
      <path
         id="line4788"
         style="fill:none;stroke:#646464"
         d="m 400.35919,584.70172 -36.39078,21.66016" />
      <path
         id="line4790"
         style="fill:none;stroke:#646464"
         d="m 405.85391,586.06183 32.01978,-26.81165" />
      <path
         id="line4792"
         style="fill:none;stroke:#646464"
         d="m 405.85391,586.06183 -5.49472,-1.36011" />
      <path
         id="line4794"
         style="fill:none;stroke:#646464"
         d="m 425.22311,617.72699 -31.6293,29.64319" />
      <path
         id="line4796"
         style="fill:none;stroke:#646464"
         d="m 425.22311,617.72699 -19.3692,-31.66516" />
      <path
         id="line4800"
         style="fill:none;stroke:#646464"
         d="m 576.98022,569.86737 19.89747,-11.10626" />
      <path
         id="line4808"
         style="fill:none;stroke:#646464"
         d="M 533.63251,563.28448 498.9119,547.04797" />
      <path
         id="line4810"
         style="fill:none;stroke:#646464"
         d="m 533.63251,563.28448 -11.47022,41.41474" />
      <path
         id="line4812"
         style="fill:none;stroke:#646464"
         d="m 545.87903,557.78668 4.41485,-42.1416" />
      <path
         id="line4814"
         style="fill:none;stroke:#646464"
         d="m 545.87903,557.78668 31.10119,12.08069" />
      <path
         id="line4816"
         style="fill:none;stroke:#646464"
         d="m 545.87903,557.78668 -12.24652,5.4978" />
      <path
         id="line4818"
         style="fill:none;stroke:#646464"
         d="m 519.49823,208.517 3.94495,-31.7357" />
      <path
         id="line4820"
         style="fill:none;stroke:#646464"
         d="m 529.55768,221.18089 43.44385,-0.6532" />
      <path
         id="line4822"
         style="fill:none;stroke:#646464"
         d="M 529.55768,221.18089 519.49823,208.517" />
      <path
         id="line4824"
         style="fill:none;stroke:#646464"
         d="m 522.37488,257.3559 3.40442,5.14639" />
      <path
         id="line4826"
         style="fill:none;stroke:#646464"
         d="m 522.37488,257.3559 7.1828,-36.17501" />
      <path
         id="line4828"
         style="fill:none;stroke:#646464"
         d="m 480.31879,255.67931 42.05609,1.67659" />
      <path
         id="line4830"
         style="fill:none;stroke:#646464"
         d="m 477.6239,216.2153 41.87433,-7.6983" />
      <path
         id="line4832"
         style="fill:none;stroke:#646464"
         d="m 477.6239,216.2153 2.69489,39.46401" />
      <path
         id="line4834"
         style="fill:none;stroke:#646464"
         d="m 438.64929,266.8887 -27.50409,7.55619" />
      <path
         id="line4836"
         style="fill:none;stroke:#646464"
         d="m 442.6152,260.565 -3.96591,6.3237" />
      <path
         id="line4838"
         style="fill:none;stroke:#646464"
         d="m 479.8157,256.228 0.50309,-0.54869" />
      <path
         id="line4840"
         style="fill:none;stroke:#646464"
         d="m 479.8157,256.228 -37.2005,4.337" />
      <path
         id="line4842"
         style="fill:none;stroke:#646464"
         d="m 481.05521,293.68188 30.74728,8.61591" />
      <path
         id="line4844"
         style="fill:none;stroke:#646464"
         d="M 481.05521,293.68188 479.8157,256.228" />
      <path
         id="line4846"
         style="fill:none;stroke:#646464"
         d="m 363.5025,266.65631 26.86911,-20.79372" />
      <path
         id="line4848"
         style="fill:none;stroke:#646464"
         d="M 363.5025,266.65631 332.8367,243.9673" />
      <path
         id="line4850"
         style="fill:none;stroke:#646464"
         d="m 363.4057,276.48389 0.0968,-9.82758" />
      <path
         id="line4852"
         style="fill:none;stroke:#646464"
         d="M 346.03229,294.6745 363.4057,276.48389" />
      <path
         id="line4854"
         style="fill:none;stroke:#646464"
         d="m 331.93069,244.1228 0.90601,-0.1555" />
      <path
         id="line4856"
         style="fill:none;stroke:#646464"
         d="M 288.26419,224.9333 258.74411,207.4691" />
      <path
         id="line4858"
         style="fill:none;stroke:#646464"
         d="m 299.4371,222.0107 18.98621,-38.2728" />
      <path
         id="line4860"
         style="fill:none;stroke:#646464"
         d="m 299.4371,222.0107 32.49359,22.1121" />
      <path
         id="line4862"
         style="fill:none;stroke:#646464"
         d="m 299.4371,222.0107 -11.17291,2.9226" />
      <path
         id="line4864"
         style="fill:none;stroke:#646464"
         d="M 387.9819,294.78671 363.4057,276.48389" />
      <path
         id="line4866"
         style="fill:none;stroke:#646464"
         d="m 406.05319,286.82111 5.09201,-12.37622" />
      <path
         id="line4868"
         style="fill:none;stroke:#646464"
         d="m 406.05319,286.82111 -18.07129,7.9656" />
      <path
         id="line4870"
         style="fill:none;stroke:#646464"
         d="M 348.40341,309.96069 346.03229,294.6745" />
      <path
         id="line4872"
         style="fill:none;stroke:#646464"
         d="m 344.54929,562.68512 8.80831,38.03821" />
      <path
         id="line4874"
         style="fill:none;stroke:#646464"
         d="m 381.8707,550.70758 18.48849,33.99414" />
      <path
         id="line4876"
         style="fill:none;stroke:#646464"
         d="m 381.8707,550.70758 -37.32141,11.97754" />
      <path
         id="line4878"
         style="fill:none;stroke:#646464"
         d="m 469.5986,210.0591 8.0253,6.1562" />
      <path
         id="line4880"
         style="fill:none;stroke:#646464"
         d="m 429.7467,224.3889 12.8685,36.1761" />
      <path
         id="line4882"
         style="fill:none;stroke:#646464"
         d="m 429.7467,224.3889 39.8519,-14.3298" />
      <path
         id="line4884"
         style="fill:none;stroke:#646464"
         d="m 426.44061,222.9577 -35.4288,19.53279" />
      <path
         id="line4886"
         style="fill:none;stroke:#646464"
         d="m 426.44061,222.9577 3.30609,1.4312" />
      <path
         id="line4888"
         style="fill:none;stroke:#646464"
         d="m 412.0401,187.711 14.40051,35.2467" />
      <path
         id="line4892"
         style="fill:none;stroke:#646464"
         d="M 448.4361,164.73241 412.0401,187.711" />
      <path
         id="line4894"
         style="fill:none;stroke:#646464"
         d="M 465.10751,175.3477 505.9819,158.3812" />
      <path
         id="line4896"
         style="fill:none;stroke:#646464"
         d="m 465.10751,175.3477 4.49109,34.7114" />
      <path
         id="line4898"
         style="fill:none;stroke:#646464"
         d="M 465.10751,175.3477 448.4361,164.73241" />
      <path
         id="line4904"
         style="fill:none;stroke:#646464"
         d="m 384.2572,153.564 -22.6127,-5.3935" />
      <path
         id="line4906"
         style="fill:none;stroke:#646464"
         d="m 398.84579,183.3111 13.19431,4.3999" />
      <path
         id="line4908"
         style="fill:none;stroke:#646464"
         d="M 398.84579,183.3111 384.2572,153.564" />
      <path
         id="line4910"
         style="fill:none;stroke:#646464"
         d="m 367.22269,211.5475 23.78912,30.94299" />
      <path
         id="line4912"
         style="fill:none;stroke:#646464"
         d="m 367.22269,211.5475 31.6231,-28.2364" />
      <path
         id="line4914"
         style="fill:none;stroke:#646464"
         d="m 359.54871,210.9613 -26.71201,33.006" />
      <path
         id="line4916"
         style="fill:none;stroke:#646464"
         d="m 359.54871,210.9613 7.67398,0.5862" />
      <path
         id="line4918"
         style="fill:none;stroke:#646464"
         d="m 335.94519,183.55141 -17.52188,0.18649" />
      <path
         id="line4920"
         style="fill:none;stroke:#646464"
         d="M 335.94519,183.55141 361.6445,148.1705" />
      <path
         id="line4922"
         style="fill:none;stroke:#646464"
         d="m 335.94519,183.55141 23.60352,27.40989" />
      <path
         id="line4924"
         style="fill:none;stroke:#646464"
         d="m 440.77399,620.16803 -15.55088,-2.44104" />
      <path
         id="line4926"
         style="fill:none;stroke:#646464"
         d="M 466.53821,586.33447 437.87369,559.25018" />
      <path
         id="line4928"
         style="fill:none;stroke:#646464"
         d="m 466.53821,586.33447 -25.76422,33.83356" />
      <path
         id="line4930"
         style="fill:none;stroke:#646464"
         d="m 476.15479,585.46881 19.8561,-37.40808" />
      <path
         id="line4932"
         style="fill:none;stroke:#646464"
         d="m 476.15479,585.46881 -9.61658,0.86566" />
      <path
         id="line4934"
         style="fill:none;stroke:#646464"
         d="m 503.1629,608.09613 18.99939,-3.39691" />
      <path
         id="line4936"
         style="fill:none;stroke:#646464"
         d="M 503.1629,608.09613 476.15479,585.46881" />
      <path
         id="line4940"
         style="fill:none;stroke:#646464"
         d="m 484.39651,648.05353 18.76639,-39.9574" />
      <path
         id="line4944"
         style="fill:none;stroke:#646464"
         d="m 459.49069,646.36469 -18.7167,-26.19666" />
      <path
         id="line4946"
         style="fill:none;stroke:#646464"
         d="m 459.49069,646.36469 24.90582,1.68884" />
      <path
         id="line4948"
         style="fill:none;stroke:#646464"
         d="M 449.08081,297.44269 438.64929,266.8887" />
      <path
         id="line4950"
         style="fill:none;stroke:#646464"
         d="m 472.03448,300.3093 9.02073,-6.62742" />
      <path
         id="line4952"
         style="fill:none;stroke:#646464"
         d="m 472.03448,300.3093 -22.95367,-2.86661" />
      <path
         id="line4954"
         style="fill:none;stroke:#646464"
         d="m 235.4469,257.69431 3.46941,-43.13891" />
      <path
         id="line4974"
         style="fill:none;stroke:#646464"
         d="M 271.39929,267.89709 235.4469,257.69431" />
      <path
         id="line4976"
         style="fill:none;stroke:#646464"
         d="M 275.91891,265.41821 288.26419,224.9333" />
      <path
         id="line4978"
         style="fill:none;stroke:#646464"
         d="m 275.91891,265.41821 -4.51962,2.47888" />
      <path
         id="line4980"
         style="fill:none;stroke:#646464"
         d="M 312.48981,277.80011 331.93069,244.1228" />
      <path
         id="line4982"
         style="fill:none;stroke:#646464"
         d="m 312.48981,277.80011 -36.5709,-12.3819" />
      <path
         id="line4984"
         style="fill:none;stroke:#646464"
         d="m 314.62839,283.39029 31.4039,11.28421" />
      <path
         id="line4986"
         style="fill:none;stroke:#646464"
         d="m 314.62839,283.39029 -11.0734,28.4921" />
      <path
         id="line4988"
         style="fill:none;stroke:#646464"
         d="m 314.62839,283.39029 -2.13858,-5.59018" />
      <path
         id="line4990"
         style="fill:none;stroke:#646464"
         d="m 383.86761,545.61041 -1.99691,5.09717" />
      <path
         id="line4992"
         style="fill:none;stroke:#646464"
         d="m 368.35391,515.64111 15.5137,29.9693" />
      <path
         id="line4994"
         style="fill:none;stroke:#646464"
         d="m 475.5787,498.9502 34.26099,6.7662" />
      <path
         id="line4996"
         style="fill:none;stroke:#646464"
         d="m 509.45001,440.77869 30.35559,-12.943" />
      <path
         id="line4998"
         style="fill:none;stroke:#646464"
         d="m 508.8075,465.25061 6.85192,7.6832" />
      <path
         id="line5000"
         style="fill:none;stroke:#646464"
         d="m 508.8075,465.25061 0.64251,-24.47192" />
      <path
         id="line5002"
         style="fill:none;stroke:#646464"
         d="m 338.96021,323.27689 9.4432,-13.3162" />
      <path
         id="line5004"
         style="fill:none;stroke:#646464"
         d="m 344.92899,342.92429 -5.96878,-19.6474" />
      <path
         id="line5006"
         style="fill:none;stroke:#646464"
         d="m 309.7478,322.24731 -6.19281,-10.36492" />
      <path
         id="line5008"
         style="fill:none;stroke:#646464"
         d="m 309.7478,322.24731 29.21241,1.02958" />
      <path
         id="line5010"
         style="fill:none;stroke:#646464"
         d="m 374.53491,318.53 -26.1315,-8.56931" />
      <path
         id="line5012"
         style="fill:none;stroke:#646464"
         d="m 383.57059,312.88531 4.41131,-18.0986" />
      <path
         id="line5014"
         style="fill:none;stroke:#646464"
         d="M 383.57059,312.88531 405.698,327.668" />
      <path
         id="line5016"
         style="fill:none;stroke:#646464"
         d="M 383.57059,312.88531 374.53491,318.53" />
      <path
         id="line5018"
         style="fill:none;stroke:#646464"
         d="m 342.59811,517.49438 25.7558,-1.85327" />
      <path
         id="line5020"
         style="fill:none;stroke:#646464"
         d="m 342.59811,517.49438 -5.60022,-30.43887" />
      <path
         id="line5026"
         style="fill:none;stroke:#646464"
         d="m 244.0211,593.54327 13.2148,19.6189" />
      <path
         id="line5028"
         style="fill:none;stroke:#646464"
         d="m 253.377,561.98468 -9.3559,31.55859" />
      <path
         id="line5030"
         style="fill:none;stroke:#646464"
         d="m 300.15231,604.26508 13.35108,12.0271" />
      <path
         id="line5032"
         style="fill:none;stroke:#646464"
         d="m 300.15231,604.26508 -42.91641,8.89709" />
      <path
         id="line5034"
         style="fill:none;stroke:#646464"
         d="m 259.66611,513.9837 -1.67322,-3.76211" />
      <path
         id="line5036"
         style="fill:none;stroke:#646464"
         d="m 246.43401,549.42822 6.94299,12.55646" />
      <path
         id="line5038"
         style="fill:none;stroke:#646464"
         d="m 246.43401,549.42822 13.2321,-35.44452" />
      <path
         id="line5042"
         style="fill:none;stroke:#646464"
         d="m 203.9729,541.93292 42.46111,7.4953" />
      <path
         id="line5044"
         style="fill:none;stroke:#646464"
         d="M 198.78439,522.42987 157.0188,507.41501" />
      <path
         id="line5046"
         style="fill:none;stroke:#646464"
         d="m 198.78439,522.42987 5.18851,19.50305" />
      <path
         id="line5048"
         style="fill:none;stroke:#646464"
         d="M 218.8717,494.03259 217.0489,483.5932" />
      <path
         id="line5050"
         style="fill:none;stroke:#646464"
         d="m 218.8717,494.03259 39.12119,16.189" />
      <path
         id="line5052"
         style="fill:none;stroke:#646464"
         d="m 218.8717,494.03259 -20.08731,28.39728" />
      <path
         id="line5054"
         style="fill:none;stroke:#646464"
         d="M 410.14471,326.94449 405.698,327.668" />
      <path
         id="line5056"
         style="fill:none;stroke:#646464"
         d="m 423.1535,309.61661 -17.10031,-22.7955" />
      <path
         id="line5058"
         style="fill:none;stroke:#646464"
         d="m 423.1535,309.61661 -13.00879,17.32788" />
      <path
         id="line5060"
         style="fill:none;stroke:#646464"
         d="m 437.3793,309.32559 11.70151,-11.8829" />
      <path
         id="line5062"
         style="fill:none;stroke:#646464"
         d="m 437.3793,309.32559 -14.2258,0.29102" />
      <path
         id="line5064"
         style="fill:none;stroke:#646464"
         d="M 447.04779,334.5965 437.3793,309.32559" />
      <path
         id="line5066"
         style="fill:none;stroke:#646464"
         d="M 426.7309,345.83041 410.14471,326.94449" />
      <path
         id="line5068"
         style="fill:none;stroke:#646464"
         d="M 426.7309,345.83041 447.04779,334.5965" />
      <path
         id="line5070"
         style="fill:none;stroke:#646464"
         d="m 265.75809,308.93729 5.6412,-41.0402" />
      <path
         id="line5072"
         style="fill:none;stroke:#646464"
         d="m 266.99261,310.29889 36.56238,1.5835" />
      <path
         id="line5074"
         style="fill:none;stroke:#646464"
         d="m 266.99261,310.29889 -1.23452,-1.3616" />
      <path
         id="line5076"
         style="fill:none;stroke:#646464"
         d="m 222.7471,266.16309 12.6998,-8.46878" />
      <path
         id="line5078"
         style="fill:none;stroke:#646464"
         d="m 226.43089,308.49051 39.3272,0.44678" />
      <path
         id="line5080"
         style="fill:none;stroke:#646464"
         d="M 226.43089,308.49051 222.7471,266.16309" />
      <path
         id="line5082"
         style="fill:none;stroke:#646464"
         d="m 220.28059,315.2648 6.1503,-6.77429" />
      <path
         id="line5084"
         style="fill:none;stroke:#646464"
         d="m 184.8353,316.94879 -11.4161,15.0108" />
      <path
         id="line5086"
         style="fill:none;stroke:#646464"
         d="m 184.8353,316.94879 35.44529,-1.68399" />
      <path
         id="line5090"
         style="fill:none;stroke:#646464"
         d="m 171.8799,274.84711 12.9554,42.10168" />
      <path
         id="line5094"
         style="fill:none;stroke:#646464"
         d="m 191.00459,259.52289 31.74251,6.6402" />
      <path
         id="line5096"
         style="fill:none;stroke:#646464"
         d="M 191.00459,259.52289 171.8799,274.84711" />
      <path
         id="line5106"
         style="fill:none;stroke:#646464"
         d="m 437.8772,557.95691 -0.004,1.29327" />
      <path
         id="line5108"
         style="fill:none;stroke:#646464"
         d="m 411.81961,531.6369 -27.952,13.97351" />
      <path
         id="line5110"
         style="fill:none;stroke:#646464"
         d="m 411.81961,531.6369 26.05759,26.32001" />
      <path
         id="line5112"
         style="fill:none;stroke:#646464"
         d="m 414.12369,520.22937 -2.30408,11.40753" />
      <path
         id="line5114"
         style="fill:none;stroke:#646464"
         d="m 432.5051,507.32751 -18.38141,12.90186" />
      <path
         id="line5116"
         style="fill:none;stroke:#646464"
         d="M 460.63229,522.45178 475.5787,498.9502" />
      <path
         id="line5118"
         style="fill:none;stroke:#646464"
         d="M 460.63229,522.45178 432.5051,507.32751" />
      <path
         id="line5120"
         style="fill:none;stroke:#646464"
         d="m 462.04251,530.27802 33.96838,17.78271" />
      <path
         id="line5122"
         style="fill:none;stroke:#646464"
         d="M 462.04251,530.27802 437.8772,557.95691" />
      <path
         id="line5124"
         style="fill:none;stroke:#646464"
         d="m 462.04251,530.27802 -1.41022,-7.82624" />
      <path
         id="line5126"
         style="fill:none;stroke:#646464"
         d="m 454.88321,337.68619 -7.83542,-3.08969" />
      <path
         id="line5128"
         style="fill:none;stroke:#646464"
         d="M 473.12479,330.05579 472.03448,300.3093" />
      <path
         id="line5130"
         style="fill:none;stroke:#646464"
         d="m 473.12479,330.05579 -18.24158,7.6304" />
      <path
         id="line5132"
         style="fill:none;stroke:#646464"
         d="m 488.508,338.82239 14.18371,-3.6337" />
      <path
         id="line5134"
         style="fill:none;stroke:#646464"
         d="m 488.508,338.82239 -6.82181,27.01822" />
      <path
         id="line5136"
         style="fill:none;stroke:#646464"
         d="m 488.508,338.82239 -15.38321,-8.7666" />
      <path
         id="line5138"
         style="fill:none;stroke:#646464"
         d="m 517.13397,396.29059 11.97742,3.63382" />
      <path
         id="line5140"
         style="fill:none;stroke:#646464"
         d="m 489.07999,375.41821 -7.3938,-9.5776" />
      <path
         id="line5142"
         style="fill:none;stroke:#646464"
         d="m 489.07999,375.41821 -13.32849,23.1828" />
      <path
         id="line5144"
         style="fill:none;stroke:#646464"
         d="m 506.7634,377.90851 16.79287,-26.37952" />
      <path
         id="line5146"
         style="fill:none;stroke:#646464"
         d="m 506.7634,377.90851 10.37057,18.38208" />
      <path
         id="line5148"
         style="fill:none;stroke:#646464"
         d="m 506.7634,377.90851 -17.68341,-2.4903" />
      <path
         id="line5156"
         style="fill:none;stroke:#646464"
         d="m 469.5943,451.83261 -26.22269,4.31909" />
      <path
         id="line5158"
         style="fill:none;stroke:#646464"
         d="m 478.6506,468.5495 30.1569,-3.29889" />
      <path
         id="line5160"
         style="fill:none;stroke:#646464"
         d="m 478.6506,468.5495 -9.0563,-16.71689" />
      <path
         id="line5162"
         style="fill:none;stroke:#646464"
         d="m 470.8826,485.96951 4.6961,12.98069" />
      <path
         id="line5164"
         style="fill:none;stroke:#646464"
         d="m 470.8826,485.96951 7.768,-17.42001" />
      <path
         id="line5168"
         style="fill:none;stroke:#646464"
         d="m 371.5509,342.07489 -26.62191,0.8494" />
      <path
         id="line5172"
         style="fill:none;stroke:#646464"
         d="M 371.71899,341.9339 374.53491,318.53" />
      <path
         id="line5174"
         style="fill:none;stroke:#646464"
         d="m 371.71899,341.9339 -0.16809,0.14099" />
      <path
         id="line5176"
         style="fill:none;stroke:#646464"
         d="M 393.74091,346.9101 405.698,327.668" />
      <path
         id="line5178"
         style="fill:none;stroke:#646464"
         d="m 393.74091,346.9101 -22.02192,-4.9762" />
      <path
         id="line5180"
         style="fill:none;stroke:#646464"
         d="m 299.33621,523.39697 -39.6701,-9.41327" />
      <path
         id="line5182"
         style="fill:none;stroke:#646464"
         d="m 301.65979,521.65228 -2.32358,1.74469" />
      <path
         id="line5184"
         style="fill:none;stroke:#646464"
         d="m 336.21759,524.36871 6.38052,-6.87433" />
      <path
         id="line5186"
         style="fill:none;stroke:#646464"
         d="m 336.21759,524.36871 -34.5578,-2.71643" />
      <path
         id="line5188"
         style="fill:none;stroke:#646464"
         d="m 343.31369,561.88593 1.2356,0.79919" />
      <path
         id="line5190"
         style="fill:none;stroke:#646464"
         d="m 343.31369,561.88593 -7.0961,-37.51722" />
      <path
         id="line5192"
         style="fill:none;stroke:#646464"
         d="m 301.37411,568.34778 -1.2218,35.9173" />
      <path
         id="line5194"
         style="fill:none;stroke:#646464"
         d="m 301.37411,568.34778 41.93958,-6.46185" />
      <path
         id="line5196"
         style="fill:none;stroke:#646464"
         d="m 295.8045,562.37408 -42.4275,-0.3894" />
      <path
         id="line5198"
         style="fill:none;stroke:#646464"
         d="m 295.8045,562.37408 3.53171,-38.97711" />
      <path
         id="line5200"
         style="fill:none;stroke:#646464"
         d="m 295.8045,562.37408 5.56961,5.9737" />
      <path
         id="line5204"
         style="fill:none;stroke:#646464"
         d="m 149.4034,415.69339 6.9785,-21.2428" />
      <path
         id="line5208"
         style="fill:none;stroke:#646464"
         d="m 182.0434,444.52191 -32.64,-28.82852" />
      <path
         id="line5210"
         style="fill:none;stroke:#646464"
         d="m 180.8293,461.1188 36.2196,22.4744" />
      <path
         id="line5212"
         style="fill:none;stroke:#646464"
         d="m 180.8293,461.1188 1.2141,-16.59689" />
      <path
         id="line5214"
         style="fill:none;stroke:#646464"
         d="m 156.6301,481.6076 0.3887,25.80741" />
      <path
         id="line5218"
         style="fill:none;stroke:#646464"
         d="m 156.6301,481.6076 24.1992,-20.4888" />
      <path
         id="line5220"
         style="fill:none;stroke:#646464"
         d="m 441.0741,459.02951 2.29751,-2.87781" />
      <path
         id="line5222"
         style="fill:none;stroke:#646464"
         d="m 443.05121,480.98471 27.83139,4.9848" />
      <path
         id="line5224"
         style="fill:none;stroke:#646464"
         d="m 443.05121,480.98471 -1.97711,-21.9552" />
      <path
         id="line5226"
         style="fill:none;stroke:#646464"
         d="m 433.2113,490.26859 -0.7062,17.05892" />
      <path
         id="line5228"
         style="fill:none;stroke:#646464"
         d="m 433.2113,490.26859 9.83991,-9.28388" />
      <path
         id="line5230"
         style="fill:none;stroke:#646464"
         d="m 393.25671,499.38889 20.86698,20.84048" />
      <path
         id="line5232"
         style="fill:none;stroke:#646464"
         d="m 376.64511,503.0686 -8.2912,12.57251" />
      <path
         id="line5234"
         style="fill:none;stroke:#646464"
         d="m 376.64511,503.0686 16.6116,-3.67971" />
      <path
         id="line5236"
         style="fill:none;stroke:#646464"
         d="m 457.46121,364.1232 -2.578,-26.43701" />
      <path
         id="line5238"
         style="fill:none;stroke:#646464"
         d="m 458.8848,365.51279 22.80139,0.32782" />
      <path
         id="line5240"
         style="fill:none;stroke:#646464"
         d="m 458.8848,365.51279 -1.42359,-1.38959" />
      <path
         id="line5242"
         style="fill:none;stroke:#646464"
         d="m 455.1333,388.78281 20.6182,9.8182" />
      <path
         id="line5244"
         style="fill:none;stroke:#646464"
         d="m 455.1333,388.78281 3.7515,-23.27002" />
      <path
         id="line5250"
         style="fill:none;stroke:#646464"
         d="m 472.30109,442.29321 -2.70679,9.5394" />
      <path
         id="line5254"
         style="fill:none;stroke:#646464"
         d="m 458.77139,423.0372 13.5297,19.25601" />
      <path
         id="line5256"
         style="fill:none;stroke:#646464"
         d="m 477.32599,404.50079 -1.57449,-5.89978" />
      <path
         id="line5258"
         style="fill:none;stroke:#646464"
         d="m 477.32599,404.50079 -18.5546,18.53641" />
      <path
         id="line5260"
         style="fill:none;stroke:#646464"
         d="m 495.2464,415.27521 21.88757,-18.98462" />
      <path
         id="line5262"
         style="fill:none;stroke:#646464"
         d="M 495.2464,415.27521 477.32599,404.50079" />
      <path
         id="line5264"
         style="fill:none;stroke:#646464"
         d="m 497.10629,430.7951 12.34372,9.98359" />
      <path
         id="line5266"
         style="fill:none;stroke:#646464"
         d="m 497.10629,430.7951 -24.8052,11.49811" />
      <path
         id="line5268"
         style="fill:none;stroke:#646464"
         d="M 497.10629,430.7951 495.2464,415.27521" />
      <path
         id="line5270"
         style="fill:none;stroke:#646464"
         d="m 317.6077,480.61292 19.39019,6.44259" />
      <path
         id="line5272"
         style="fill:none;stroke:#646464"
         d="m 305.91351,486.16269 -4.25372,35.48959" />
      <path
         id="line5274"
         style="fill:none;stroke:#646464"
         d="m 305.91351,486.16269 11.69419,-5.54977" />
      <path
         id="line5276"
         style="fill:none;stroke:#646464"
         d="m 211.6572,422.93649 -29.6138,21.58542" />
      <path
         id="line5278"
         style="fill:none;stroke:#646464"
         d="m 241.9129,452.6879 -24.864,30.9053" />
      <path
         id="line5280"
         style="fill:none;stroke:#646464"
         d="M 241.9129,452.6879 211.6572,422.93649" />
      <path
         id="line5282"
         style="fill:none;stroke:#646464"
         d="m 320.6622,452.04279 -3.0545,28.57013" />
      <path
         id="line5284"
         style="fill:none;stroke:#646464"
         d="m 320.6622,452.04279 20.89401,-4.0806" />
      <path
         id="line5286"
         style="fill:none;stroke:#646464"
         d="m 309.3912,442.2446 11.271,9.79819" />
      <path
         id="line5290"
         style="fill:none;stroke:#646464"
         d="m 342.39581,422.3002 -0.8396,25.66199" />
      <path
         id="line5294"
         style="fill:none;stroke:#646464"
         d="M 319.62341,417.0538 309.3912,442.2446" />
      <path
         id="line5296"
         style="fill:none;stroke:#646464"
         d="m 319.62341,417.0538 22.7724,5.2464" />
      <path
         id="line5298"
         style="fill:none;stroke:#646464"
         d="m 341.77811,349.0509 3.15088,-6.12661" />
      <path
         id="line5302"
         style="fill:none;stroke:#646464"
         d="M 350.63229,370.22351 341.77811,349.0509" />
      <path
         id="line5308"
         style="fill:none;stroke:#646464"
         d="m 346.0163,450.84839 -4.46009,-2.8862" />
      <path
         id="line5312"
         style="fill:none;stroke:#646464"
         d="m 367.8335,444.4465 -21.8172,6.40189" />
      <path
         id="line5314"
         style="fill:none;stroke:#646464"
         d="M 380.7504,463.56021 367.8335,444.4465" />
      <path
         id="line5316"
         style="fill:none;stroke:#646464"
         d="m 363.29529,478.82309 13.34982,24.24551" />
      <path
         id="line5318"
         style="fill:none;stroke:#646464"
         d="M 363.29529,478.82309 380.7504,463.56021" />
      <path
         id="line5320"
         style="fill:none;stroke:#646464"
         d="m 352.0943,476.815 -15.09641,10.24051" />
      <path
         id="line5322"
         style="fill:none;stroke:#646464"
         d="m 352.0943,476.815 -6.078,-25.96661" />
      <path
         id="line5324"
         style="fill:none;stroke:#646464"
         d="m 352.0943,476.815 11.20099,2.00809" />
      <path
         id="line5326"
         style="fill:none;stroke:#646464"
         d="m 409.0069,478.45221 24.2044,11.81638" />
      <path
         id="line5328"
         style="fill:none;stroke:#646464"
         d="m 401.83621,481.15201 -8.5795,18.23688" />
      <path
         id="line5330"
         style="fill:none;stroke:#646464"
         d="m 401.83621,481.15201 7.17069,-2.6998" />
      <path
         id="line5332"
         style="fill:none;stroke:#646464"
         d="m 381.86411,463.60211 -1.11371,-0.0419" />
      <path
         id="line5334"
         style="fill:none;stroke:#646464"
         d="m 381.86411,463.60211 19.9721,17.5499" />
      <path
         id="line5336"
         style="fill:none;stroke:#646464"
         d="m 416.58411,456.65649 24.48999,2.37302" />
      <path
         id="line5338"
         style="fill:none;stroke:#646464"
         d="m 416.58411,456.65649 -7.57721,21.79572" />
      <path
         id="line5360"
         style="fill:none;stroke:#646464"
         d="m 242.0918,452.67181 -0.1789,0.0161" />
      <path
         id="line5362"
         style="fill:none;stroke:#646464"
         d="m 293.1395,443.16449 16.2517,-0.91989" />
      <path
         id="line5364"
         style="fill:none;stroke:#646464"
         d="m 279.84921,472.97501 26.0643,13.18768" />
      <path
         id="line5366"
         style="fill:none;stroke:#646464"
         d="M 279.84921,472.97501 293.1395,443.16449" />
      <path
         id="line5368"
         style="fill:none;stroke:#646464"
         d="m 273.13239,474.84839 -15.1395,35.3732" />
      <path
         id="line5370"
         style="fill:none;stroke:#646464"
         d="M 273.13239,474.84839 242.0918,452.67181" />
      <path
         id="line5372"
         style="fill:none;stroke:#646464"
         d="m 273.13239,474.84839 6.71682,-1.87338" />
      <path
         id="line5374"
         style="fill:none;stroke:#646464"
         d="m 277.6174,425.11429 15.5221,18.0502" />
      <path
         id="line5376"
         style="fill:none;stroke:#646464"
         d="M 266.93399,423.9949 242.0918,452.67181" />
      <path
         id="line5378"
         style="fill:none;stroke:#646464"
         d="m 266.93399,423.9949 10.68341,1.11939" />
      <path
         id="line5380"
         style="fill:none;stroke:#646464"
         d="m 212.72031,416.3259 -1.06311,6.61059" />
      <path
         id="line5382"
         style="fill:none;stroke:#646464"
         d="m 187.65961,382.17899 -31.27771,12.2716" />
      <path
         id="line5384"
         style="fill:none;stroke:#646464"
         d="m 187.65961,382.17899 25.0607,34.14691" />
      <path
         id="line5386"
         style="fill:none;stroke:#646464"
         d="M 192.7739,370.24911 173.4192,331.95959" />
      <path
         id="line5388"
         style="fill:none;stroke:#646464"
         d="m 192.7739,370.24911 -5.11429,11.92988" />
      <path
         id="line5444"
         style="fill:none;stroke:#646464"
         d="m 304.9425,343.4971 4.8053,-21.24979" />
      <path
         id="line5446"
         style="fill:none;stroke:#646464"
         d="m 316.12399,356.91049 25.65412,-7.85959" />
      <path
         id="line5448"
         style="fill:none;stroke:#646464"
         d="M 316.12399,356.91049 304.9425,343.4971" />
      <path
         id="line5450"
         style="fill:none;stroke:#646464"
         d="m 267.67249,346.3407 -0.67988,-36.04181" />
      <path
         id="line5452"
         style="fill:none;stroke:#646464"
         d="M 274.36911,351.47479 304.9425,343.4971" />
      <path
         id="line5454"
         style="fill:none;stroke:#646464"
         d="m 274.36911,351.47479 -6.69662,-5.13409" />
      <path
         id="line5456"
         style="fill:none;stroke:#646464"
         d="m 278.96109,378.2551 -4.59198,-26.78031" />
      <path
         id="line5458"
         style="fill:none;stroke:#646464"
         d="m 249.577,396.38062 17.35699,27.61428" />
      <path
         id="line5460"
         style="fill:none;stroke:#646464"
         d="M 249.577,396.38062 278.96109,378.2551" />
      <path
         id="line5462"
         style="fill:none;stroke:#646464"
         d="M 245.2944,395.14731 212.72031,416.3259" />
      <path
         id="line5464"
         style="fill:none;stroke:#646464"
         d="m 245.2944,395.14731 4.2826,1.23331" />
      <path
         id="line5466"
         style="fill:none;stroke:#646464"
         d="M 229.52161,358.57709 192.7739,370.24911" />
      <path
         id="line5468"
         style="fill:none;stroke:#646464"
         d="m 229.52161,358.57709 15.77279,36.57022" />
      <path
         id="line5470"
         style="fill:none;stroke:#646464"
         d="M 230.7182,356.34149 220.28059,315.2648" />
      <path
         id="line5472"
         style="fill:none;stroke:#646464"
         d="M 230.7182,356.34149 267.67249,346.3407" />
      <path
         id="line5474"
         style="fill:none;stroke:#646464"
         d="m 230.7182,356.34149 -1.19659,2.2356" />
      <path
         id="line5528"
         style="fill:none;stroke:#646464"
         d="m 315.55609,408.82919 4.06732,8.22461" />
      <path
         id="line5530"
         style="fill:none;stroke:#646464"
         d="m 297.2655,402.37949 -19.6481,22.7348" />
      <path
         id="line5532"
         style="fill:none;stroke:#646464"
         d="m 297.2655,402.37949 18.29059,6.4497" />
      <path
         id="line5534"
         style="fill:none;stroke:#646464"
         d="M 291.54071,384.90741 278.96109,378.2551" />
      <path
         id="line5536"
         style="fill:none;stroke:#646464"
         d="m 291.54071,384.90741 5.72479,17.47208" />
      <path
         id="line5538"
         style="fill:none;stroke:#646464"
         d="m 315.12021,369.68811 1.00378,-12.77762" />
      <path
         id="line5540"
         style="fill:none;stroke:#646464"
         d="m 315.12021,369.68811 -23.5795,15.2193" />
      <path
         id="line5542"
         style="fill:none;stroke:#646464"
         d="m 331.5643,384.9324 19.06799,-14.70889" />
      <path
         id="line5544"
         style="fill:none;stroke:#646464"
         d="M 331.5643,384.9324 315.12021,369.68811" />
      <path
         id="line5548"
         style="fill:none;stroke:#646464"
         d="m 331.7402,387.77371 -16.18411,21.05548" />
      <path
         id="line5550"
         style="fill:none;stroke:#646464"
         d="m 331.7402,387.77371 -0.1759,-2.84131" />
    </g>
  </g>
</svg>
